<svg xmlns="http://www.w3.org/2000/svg" xmlns:xlink="http://www.w3.org/1999/xlink" width="2370" height="1297.47"><rect width="2370" height="1297.47" rx="5" ry="5" class="a"/><svg y="0%" x="0%"><circle cx="20" cy="20" r="6" fill="#ff5f58"/><circle cx="40" cy="20" r="6" fill="#ffbd2e"/><circle cx="60" cy="20" r="6" fill="#18c132"/></svg><svg height="1237.47" viewBox="0 0 233 123.747" width="2330" x="15" xmlns="http://www.w3.org/2000/svg" xmlns:xlink="http://www.w3.org/1999/xlink" y="50"><style>@keyframes l{0%{transform:translateX(0)}.51%{transform:translateX(-233px)}4.54%{transform:translateX(-466px)}7.73%{transform:translateX(-699px)}9.46%{transform:translateX(-932px)}15.2%{transform:translateX(-1165px)}25.13%{transform:translateX(-1398px)}35.05%{transform:translateX(-1631px)}35.08%{transform:translateX(-2097px)}35.24%{transform:translateX(-2563px)}37.96%{transform:translateX(-2796px)}47.89%{transform:translateX(-3029px)}47.9%{transform:translateX(-3262px)}57.83%{transform:translateX(-3495px)}58%{transform:translateX(-3728px)}58.01%{transform:translateX(-3961px)}58.03%{transform:translateX(-4194px)}58.05%{transform:translateX(-4427px)}67.98%{transform:translateX(-4660px)}77.91%{transform:translateX(-4893px)}87.83%{transform:translateX(-5126px)}90.18%{transform:translateX(-5359px)}to{transform:translateX(-5592px)}}.a{fill:#282d35}.f,.g,.h,.i{fill:#b9c0cb;white-space:pre}.g,.h,.i{fill:#a8cc8c;font-weight:700}.h,.i{fill:#dbab79}.i{fill:#b9bfca}</style><g font-family="Monaco,Consolas,Menlo,'Bitstream Vera Sans Mono','Powerline Symbols',monospace" font-size="1.67"><defs><symbol id="1"><text y="1.67" class="f">$</text></symbol><symbol id="2"><text y="1.67" class="f">$</text><text x="2.004" y="1.67" class="f">python3</text><text x="10.02" y="1.67" class="f">maigret</text><text x="18.036" y="1.67" class="f">--ids</text><text x="24.048" y="1.67" class="f">--print-found</text><text x="38.076" y="1.67" class="f">--skip-errors</text><text x="52.104" y="1.67" class="f">alexaimephotographycars</text></symbol><symbol id="3"><text y="1.67" class="g">[</text><text x="1.002" y="1.67" class="h">*</text><text x="2.004" y="1.67" class="g">]</text><text x="4.008" y="1.67" class="g">Checking</text><text x="13.026" y="1.67" class="g">username</text><text x="22.044" y="1.67" class="i">alexaimephotographycars</text><text x="46.092" y="1.67" class="g">on:</text></symbol><symbol id="4"><text y="1.67" class="i">[</text><text x="1.002" y="1.67" class="g">+</text><text x="2.004" y="1.67" class="i">]</text><text x="4.008" y="1.67" class="g">500px:</text><text x="11.022" y="1.67" class="f">https://500px.com/p/alexaimephotographycars</text></symbol><symbol id="5"><text x="1.002" y="1.67" class="f">┣╸uid:</text><text x="8.016" y="1.67" class="f">dXJpOm5vZGU6VXNlcjoyNjQwMzQxNQ==</text></symbol><symbol id="6"><text x="1.002" y="1.67" class="f">┣╸legacy_id:</text><text x="14.028" y="1.67" class="f">26403415</text></symbol><symbol id="7"><text x="1.002" y="1.67" class="f">┣╸username:</text><text x="13.026" y="1.67" class="f">alexaimephotographycars</text></symbol><symbol id="8"><text x="1.002" y="1.67" class="f">┣╸name:</text><text x="9.018" y="1.67" class="f">Alex</text><text x="14.028" y="1.67" class="f">Aimé</text></symbol><symbol id="9"><text x="1.002" y="1.67" class="f">┣╸website:</text><text x="12.024" y="1.67" class="f">www.flickr.com/photos/alexaimephotography/</text></symbol><symbol id="10"><text x="1.002" y="1.67" class="f">┣╸facebook_link:</text><text x="19.038" y="1.67" class="f">www.instagram.com/street.reality.photography/</text></symbol><symbol id="11"><text x="1.002" y="1.67" class="f">┣╸instagram_username:</text><text x="23.046" y="1.67" class="f">alexaimephotography</text></symbol><symbol id="12"><text x="1.002" y="1.67" class="f">┗╸twitter_username:</text><text x="21.042" y="1.67" class="f">Alexaimephotogr</text></symbol><symbol id="13"><text y="1.67" class="g">[</text><text x="1.002" y="1.67" class="h">*</text><text x="2.004" y="1.67" class="g">]</text><text x="4.008" y="1.67" class="g">Checking</text><text x="13.026" y="1.67" class="g">username</text><text x="22.044" y="1.67" class="i">alexaimephotography</text><text x="42.084" y="1.67" class="g">on:</text></symbol><symbol id="14"><text y="1.67" class="i">[</text><text x="1.002" y="1.67" class="g">+</text><text x="2.004" y="1.67" class="i">]</text><text x="4.008" y="1.67" class="g">DeviantART:</text><text x="16.032" y="1.67" class="f">https://alexaimephotography.deviantart.com</text></symbol><symbol id="15"><text x="1.002" y="1.67" class="f">┣╸country:</text><text x="12.024" y="1.67" class="f">France</text></symbol><symbol id="16"><text x="1.002" y="1.67" class="f">┣╸registered_for_seconds:</text><text x="27.054" y="1.67" class="f">55040868</text></symbol><symbol id="17"><text x="1.002" y="1.67" class="f">┣╸gender:</text><text x="11.022" y="1.67" class="f">male</text></symbol><symbol id="18"><text x="1.002" y="1.67" class="f">┣╸username:</text><text x="13.026" y="1.67" class="f">Alexaimephotography</text></symbol><symbol id="19"><text x="1.002" y="1.67" class="f">┣╸twitter_username:</text><text x="21.042" y="1.67" class="f">alexaimephotogr</text></symbol><symbol id="20"><text x="1.002" y="1.67" class="f">┣╸website:</text><text x="12.024" y="1.67" class="f">www.instagram.com/alexaimephotography/</text></symbol><symbol id="21"><text x="1.002" y="1.67" class="f">┗╸links:</text></symbol><symbol id="22"><text x="3.006" y="1.67" class="f">┗╸</text><text x="6.012" y="1.67" class="f">https://www.instagram.com/alexaimephotography/</text></symbol><symbol id="23"><text y="1.67" class="i">[</text><text x="1.002" y="1.67" class="g">+</text><text x="2.004" y="1.67" class="i">]</text><text x="4.008" y="1.67" class="g">EyeEm:</text><text x="11.022" y="1.67" class="f">https://www.eyeem.com/u/alexaimephotography</text></symbol><symbol id="24"><text x="1.002" y="1.67" class="f">┣╸eyeem_id:</text><text x="13.026" y="1.67" class="f">21974802</text></symbol><symbol id="25"><text x="1.002" y="1.67" class="f">┣╸eyeem_username:</text><text x="19.038" y="1.67" class="f">alexaimephotography</text></symbol><symbol id="26"><text x="1.002" y="1.67" class="f">┣╸fullname:</text><text x="13.026" y="1.67" class="f">Alex</text></symbol><symbol id="27"><text x="1.002" y="1.67" class="f">┣╸followers:</text><text x="14.028" y="1.67" class="f">10</text></symbol><symbol id="28"><text x="1.002" y="1.67" class="f">┣╸friends:</text><text x="12.024" y="1.67" class="f">2</text></symbol><symbol id="29"><text x="1.002" y="1.67" class="f">┣╸liked_photos:</text><text x="17.034" y="1.67" class="f">37</text></symbol><symbol id="30"><text x="1.002" y="1.67" class="f">┣╸photos:</text><text x="11.022" y="1.67" class="f">10</text></symbol><symbol id="31"><text x="1.002" y="1.67" class="f">┗╸facebook_uid:</text><text x="17.034" y="1.67" class="f">1534915183474093</text></symbol><symbol id="32"><text y="1.67" class="i">[</text><text x="1.002" y="1.67" class="g">+</text><text x="2.004" y="1.67" class="i">]</text><text x="4.008" y="1.67" class="g">Facebook:</text><text x="14.028" y="1.67" class="f">https://www.facebook.com/alexaimephotography</text></symbol><symbol id="33"><text y="1.67" class="i">[</text><text x="1.002" y="1.67" class="g">+</text><text x="2.004" y="1.67" class="i">]</text><text x="4.008" y="1.67" class="g">Gramho:</text><text x="12.024" y="1.67" class="f">https://gramho.com/explore-hashtag/alexaimephotography</text></symbol><symbol id="34"><text y="1.67" class="i">[</text><text x="1.002" y="1.67" class="g">+</text><text x="2.004" y="1.67" class="i">]</text><text x="4.008" y="1.67" class="g">Instagram:</text><text x="15.03" y="1.67" class="f">https://www.instagram.com/alexaimephotography</text></symbol><symbol id="35"><text x="1.002" y="1.67" class="f">┣╸username:</text><text x="13.026" y="1.67" class="f">alexaimephotography</text></symbol><symbol id="36"><text x="1.002" y="1.67" class="f">┣╸full_name:</text><text x="14.028" y="1.67" class="f">Alexaimephotography</text></symbol><symbol id="37"><text x="1.002" y="1.67" class="f">┣╸id:</text><text x="7.014" y="1.67" class="f">6828488620</text></symbol><symbol id="38"><text x="1.002" y="1.67" class="f">┣╸biography:</text><text x="14.028" y="1.67" class="f">🇮🇹</text><text x="19.038" y="1.67" class="f">🇲🇫</text><text x="24.048" y="1.67" class="f">🇩🇪</text></symbol><symbol id="39"><text y="1.67" class="f">Amateur</text><text x="8.016" y="1.67" class="f">photographer</text></symbol><symbol id="40"><text y="1.67" class="f">Follow</text><text x="7.014" y="1.67" class="f">me</text><text x="10.02" y="1.67" class="f">@street.reality.photography</text></symbol><symbol id="41"><text y="1.67" class="f">Sony</text><text x="5.01" y="1.67" class="f">A7ii</text></symbol><symbol id="42"><text x="1.002" y="1.67" class="f">┗╸external_url:</text><text x="17.034" y="1.67" class="f">https://www.flickr.com/photos/alexaimephotography2020/</text></symbol><symbol id="43"><text y="1.67" class="i">[</text><text x="1.002" y="1.67" class="g">+</text><text x="2.004" y="1.67" class="i">]</text><text x="4.008" y="1.67" class="g">Picuki:</text><text x="12.024" y="1.67" class="f">https://www.picuki.com/profile/alexaimephotography</text></symbol><symbol id="44"><text y="1.67" class="i">[</text><text x="1.002" y="1.67" class="g">+</text><text x="2.004" y="1.67" class="i">]</text><text x="4.008" y="1.67" class="g">Pinterest:</text><text x="15.03" y="1.67" class="f">https://www.pinterest.com/alexaimephotography/</text></symbol><symbol id="45"><text x="1.002" y="1.67" class="f">┣╸pinterest_username:</text><text x="23.046" y="1.67" class="f">alexaimephotography</text></symbol><symbol id="46"><text x="1.002" y="1.67" class="f">┣╸fullname:</text><text x="13.026" y="1.67" class="f">alexaimephotography</text></symbol><symbol id="47"><text x="1.002" y="1.67" class="f">┣╸image:</text><text x="10.02" y="1.67" class="f">https://s.pinimg.com/images/user/default_280.png</text></symbol><symbol id="48"><text x="1.002" y="1.67" class="f">┣╸board_count:</text><text x="16.032" y="1.67" class="f">3</text></symbol><symbol id="49"><text x="1.002" y="1.67" class="f">┣╸pin_count:</text><text x="14.028" y="1.67" class="f">4</text></symbol><symbol id="50"><text x="1.002" y="1.67" class="f">┣╸country:</text><text x="12.024" y="1.67" class="f">FR</text></symbol><symbol id="51"><text x="1.002" y="1.67" class="f">┣╸follower_count:</text><text x="19.038" y="1.67" class="f">0</text></symbol><symbol id="52"><text x="1.002" y="1.67" class="f">┣╸following_count:</text><text x="20.04" y="1.67" class="f">1</text></symbol><symbol id="53"><text x="1.002" y="1.67" class="f">┣╸is_website_verified:</text><text x="24.048" y="1.67" class="f">False</text></symbol><symbol id="54"><text x="1.002" y="1.67" class="f">┣╸is_indexed:</text><text x="15.03" y="1.67" class="f">True</text></symbol><symbol id="55"><text x="1.002" y="1.67" class="f">┣╸is_verified_merchant:</text><text x="25.05" y="1.67" class="f">False</text></symbol><symbol id="56"><text x="1.002" y="1.67" class="f">┗╸locale:</text><text x="11.022" y="1.67" class="f">fr</text></symbol><symbol id="57"><text y="1.67" class="i">[</text><text x="1.002" y="1.67" class="g">+</text><text x="2.004" y="1.67" class="i">]</text><text x="4.008" y="1.67" class="g">Reddit:</text><text x="12.024" y="1.67" class="f">https://www.reddit.com/user/alexaimephotography</text></symbol><symbol id="58"><text x="1.002" y="1.67" class="f">┣╸reddit_id:</text><text x="14.028" y="1.67" class="f">t5_1nytpy</text></symbol><symbol id="59"><text x="1.002" y="1.67" class="f">┣╸reddit_username:</text><text x="20.04" y="1.67" class="f">alexaimephotography</text></symbol><symbol id="60"><text x="1.002" y="1.67" class="f">┣╸display_name:</text><text x="17.034" y="1.67" class="f">alexaimephotography</text></symbol><symbol id="61"><text x="1.002" y="1.67" class="f">┣╸is_employee:</text><text x="16.032" y="1.67" class="f">False</text></symbol><symbol id="62"><text x="1.002" y="1.67" class="f">┣╸is_nsfw:</text><text x="12.024" y="1.67" class="f">False</text></symbol><symbol id="63"><text x="1.002" y="1.67" class="f">┣╸is_mod:</text><text x="11.022" y="1.67" class="f">True</text></symbol><symbol id="64"><text x="1.002" y="1.67" class="f">┣╸is_following:</text><text x="17.034" y="1.67" class="f">True</text></symbol><symbol id="65"><text x="1.002" y="1.67" class="f">┣╸has_user_profile:</text><text x="21.042" y="1.67" class="f">True</text></symbol><symbol id="66"><text x="1.002" y="1.67" class="f">┣╸hide_from_robots:</text><text x="21.042" y="1.67" class="f">False</text></symbol><symbol id="67"><text x="1.002" y="1.67" class="f">┣╸created_utc:</text><text x="16.032" y="1.67" class="f">1562750403</text></symbol><symbol id="68"><text x="1.002" y="1.67" class="f">┣╸total_karma:</text><text x="16.032" y="1.67" class="f">43075</text></symbol><symbol id="69"><text x="1.002" y="1.67" class="f">┗╸post_karma:</text><text x="15.03" y="1.67" class="f">42574</text></symbol><symbol id="70"><text y="1.67" class="i">[</text><text x="1.002" y="1.67" class="g">+</text><text x="2.004" y="1.67" class="i">]</text><text x="4.008" y="1.67" class="g">Tumblr:</text><text x="12.024" y="1.67" class="f">https://alexaimephotography.tumblr.com/</text></symbol><symbol id="71"><text y="1.67" class="i">[</text><text x="1.002" y="1.67" class="g">+</text><text x="2.004" y="1.67" class="i">]</text><text x="4.008" y="1.67" class="g">VK:</text><text x="8.016" y="1.67" class="f">https://vk.com/alexaimephotography</text></symbol><symbol id="72"><text y="1.67" class="i">[</text><text x="1.002" y="1.67" class="g">+</text><text x="2.004" y="1.67" class="i">]</text><text x="4.008" y="1.67" class="g">Vimeo:</text><text x="11.022" y="1.67" class="f">https://vimeo.com/alexaimephotography</text></symbol><symbol id="73"><text x="1.002" y="1.67" class="f">┣╸uid:</text><text x="8.016" y="1.67" class="f">75857717</text></symbol><symbol id="74"><text x="1.002" y="1.67" class="f">┣╸name:</text><text x="9.018" y="1.67" class="f">AlexAimePhotography</text></symbol><symbol id="75"><text x="1.002" y="1.67" class="f">┣╸location:</text><text x="13.026" y="1.67" class="f">France</text></symbol><symbol id="76"><text x="1.002" y="1.67" class="f">┣╸created_at:</text><text x="15.03" y="1.67" class="f">2017-12-06</text><text x="26.052" y="1.67" class="f">06:49:28</text></symbol><symbol id="77"><text x="1.002" y="1.67" class="f">┣╸is_staff:</text><text x="13.026" y="1.67" class="f">False</text></symbol><symbol id="78"><text x="3.006" y="1.67" class="f">┣╸</text><text x="6.012" y="1.67" class="f">https://500px.com/alexaimephotography</text></symbol><symbol id="79"><text x="3.006" y="1.67" class="f">┣╸</text><text x="6.012" y="1.67" class="f">https://www.flickr.com/photos/photoambiance/</text></symbol><symbol id="80"><text x="3.006" y="1.67" class="f">┣╸</text><text x="6.012" y="1.67" class="f">https://www.instagram.com/alexaimephotography/</text></symbol><symbol id="81"><text x="3.006" y="1.67" class="f">┣╸</text><text x="6.012" y="1.67" class="f">https://www.youtube.com/channel/UC4NiYV3Yqih2WHcwKg4uPuQ</text></symbol><symbol id="82"><text x="3.006" y="1.67" class="f">┗╸</text><text x="6.012" y="1.67" class="f">https://flii.by/alexaimephotography/</text></symbol><symbol id="83"><text y="1.67" class="i">[</text><text x="1.002" y="1.67" class="g">+</text><text x="2.004" y="1.67" class="i">]</text><text x="4.008" y="1.67" class="g">We</text><text x="7.014" y="1.67" class="g">Heart</text><text x="13.026" y="1.67" class="g">It:</text><text x="17.034" y="1.67" class="f">https://weheartit.com/alexaimephotography</text></symbol><symbol id="84"><text y="1.67" class="g">[</text><text x="1.002" y="1.67" class="h">*</text><text x="2.004" y="1.67" class="g">]</text><text x="4.008" y="1.67" class="g">Checking</text><text x="13.026" y="1.67" class="g">username</text><text x="22.044" y="1.67" class="i">Alexaimephotogr</text><text x="38.076" y="1.67" class="g">on:</text></symbol><symbol id="85"><text y="1.67" class="i">[</text><text x="1.002" y="1.67" class="g">+</text><text x="2.004" y="1.67" class="i">]</text><text x="4.008" y="1.67" class="g">Twitter:</text><text x="13.026" y="1.67" class="f">https://twitter.com/Alexaimephotogr</text></symbol><symbol id="a"><path fill="transparent" d="M0 0h233v57H0z"/></symbol><symbol id="b"><path fill="#6f7683" d="M0 0h1.102v2.171H0z"/></symbol></defs><path class="a" d="M0 0h233v123.747H0z"/><g style="animation-duration:20.149870999999997s;animation-iteration-count:infinite;animation-name:l;animation-timing-function:steps(1,end)"><svg width="5825"><svg><use xlink:href="#a"/><use xlink:href="#b" x="-.004"/></svg><svg x="233"><use xlink:href="#a"/><use xlink:href="#b" x="1.996"/><use xlink:href="#1"/></svg><svg x="466"><use xlink:href="#a"/><use xlink:href="#b" x="74.996"/><text y="1.67" class="f">$</text><path fill="#b9c0cb" d="M2.004 0h73v2.171h-73z"/><text x="2.004" y="1.67" style="white-space:pre" fill="#282d35">python3 maigret --ids --print-found --skip-errors alexaimephotographycars</text></svg><svg x="699"><use xlink:href="#a"/><use xlink:href="#b" x="-.004" y="2.146"/><use xlink:href="#2"/></svg><svg x="932"><use xlink:href="#a"/><use xlink:href="#b" x="-.004" y="4.317"/><use xlink:href="#2"/><use xlink:href="#3" y="2.171"/></svg><svg x="1165"><use xlink:href="#a"/><use xlink:href="#b" x="-.004" y="23.856"/><use xlink:href="#2"/><use xlink:href="#3" y="2.171"/><use xlink:href="#4" y="4.342"/><use xlink:href="#5" y="6.513"/><use xlink:href="#6" y="8.684"/><use xlink:href="#7" y="10.855"/><use xlink:href="#8" y="13.026"/><use xlink:href="#9" y="15.197"/><use xlink:href="#10" y="17.368"/><use xlink:href="#11" y="19.539"/><use xlink:href="#12" y="21.71"/></svg><svg x="1398"><use xlink:href="#a"/><use xlink:href="#b" x="-.004" y="26.027"/><use xlink:href="#2"/><use xlink:href="#3" y="2.171"/><use xlink:href="#4" y="4.342"/><use xlink:href="#5" y="6.513"/><use xlink:href="#6" y="8.684"/><use xlink:href="#7" y="10.855"/><use xlink:href="#8" y="13.026"/><use xlink:href="#9" y="15.197"/><use xlink:href="#10" y="17.368"/><use xlink:href="#11" y="19.539"/><use xlink:href="#12" y="21.71"/><use xlink:href="#13" y="23.881"/></svg><svg x="1631"><use xlink:href="#a"/><use xlink:href="#b" x="-.004" y="45.566"/><use xlink:href="#2"/><use xlink:href="#3" y="2.171"/><use xlink:href="#4" y="4.342"/><use xlink:href="#5" y="6.513"/><use xlink:href="#6" y="8.684"/><use xlink:href="#7" y="10.855"/><use xlink:href="#8" y="13.026"/><use xlink:href="#9" y="15.197"/><use xlink:href="#10" y="17.368"/><use xlink:href="#11" y="19.539"/><use xlink:href="#12" y="21.71"/><use xlink:href="#13" y="23.881"/><use xlink:href="#14" y="26.052"/><use xlink:href="#15" y="28.223"/><use xlink:href="#16" y="30.394"/><use xlink:href="#17" y="32.565"/><use xlink:href="#18" y="34.736"/><use xlink:href="#19" y="36.907"/><use xlink:href="#20" y="39.078"/><use xlink:href="#21" y="41.249"/><use xlink:href="#22" y="43.42"/></svg><svg x="1864"><use xlink:href="#a"/><use xlink:href="#b" x="-.004" y="65.105"/><use xlink:href="#2"/><use xlink:href="#3" y="2.171"/><use xlink:href="#4" y="4.342"/><use xlink:href="#5" y="6.513"/><use xlink:href="#6" y="8.684"/><use xlink:href="#7" y="10.855"/><use xlink:href="#8" y="13.026"/><use xlink:href="#9" y="15.197"/><use xlink:href="#10" y="17.368"/><use xlink:href="#11" y="19.539"/><use xlink:href="#12" y="21.71"/><use xlink:href="#13" y="23.881"/><use xlink:href="#14" y="26.052"/><use xlink:href="#15" y="28.223"/><use xlink:href="#16" y="30.394"/><use xlink:href="#17" y="32.565"/><use xlink:href="#18" y="34.736"/><use xlink:href="#19" y="36.907"/><use xlink:href="#20" y="39.078"/><use xlink:href="#21" y="41.249"/><use xlink:href="#22" y="43.42"/><use xlink:href="#23" y="45.591"/><use xlink:href="#24" y="47.762"/><use xlink:href="#25" y="49.933"/><use xlink:href="#26" y="52.104"/><use xlink:href="#27" y="54.275"/><use xlink:href="#28" y="56.446"/><use xlink:href="#29" y="58.617"/><use xlink:href="#30" y="60.788"/><use xlink:href="#31" y="62.959"/></svg><svg x="2097"><use xlink:href="#a"/><use xlink:href="#b" x="-.004" y="67.276"/><use xlink:href="#2"/><use xlink:href="#3" y="2.171"/><use xlink:href="#4" y="4.342"/><use xlink:href="#5" y="6.513"/><use xlink:href="#6" y="8.684"/><use xlink:href="#7" y="10.855"/><use xlink:href="#8" y="13.026"/><use xlink:href="#9" y="15.197"/><use xlink:href="#10" y="17.368"/><use xlink:href="#11" y="19.539"/><use xlink:href="#12" y="21.71"/><use xlink:href="#13" y="23.881"/><use xlink:href="#14" y="26.052"/><use xlink:href="#15" y="28.223"/><use xlink:href="#16" y="30.394"/><use xlink:href="#17" y="32.565"/><use xlink:href="#18" y="34.736"/><use xlink:href="#19" y="36.907"/><use xlink:href="#20" y="39.078"/><use xlink:href="#21" y="41.249"/><use xlink:href="#22" y="43.42"/><use xlink:href="#23" y="45.591"/><use xlink:href="#24" y="47.762"/><use xlink:href="#25" y="49.933"/><use xlink:href="#26" y="52.104"/><use xlink:href="#27" y="54.275"/><use xlink:href="#28" y="56.446"/><use xlink:href="#29" y="58.617"/><use xlink:href="#30" y="60.788"/><use xlink:href="#31" y="62.959"/><use xlink:href="#32" y="65.13"/></svg><svg x="2330"><use xlink:href="#a"/><use xlink:href="#b" x="65.996" y="67.276"/><use xlink:href="#2"/><use xlink:href="#3" y="2.171"/><use xlink:href="#4" y="4.342"/><use xlink:href="#5" y="6.513"/><use xlink:href="#6" y="8.684"/><use xlink:href="#7" y="10.855"/><use xlink:href="#8" y="13.026"/><use xlink:href="#9" y="15.197"/><use xlink:href="#10" y="17.368"/><use xlink:href="#11" y="19.539"/><use xlink:href="#12" y="21.71"/><use xlink:href="#13" y="23.881"/><use xlink:href="#14" y="26.052"/><use xlink:href="#15" y="28.223"/><use xlink:href="#16" y="30.394"/><use xlink:href="#17" y="32.565"/><use xlink:href="#18" y="34.736"/><use xlink:href="#19" y="36.907"/><use xlink:href="#20" y="39.078"/><use xlink:href="#21" y="41.249"/><use xlink:href="#22" y="43.42"/><use xlink:href="#23" y="45.591"/><use xlink:href="#24" y="47.762"/><use xlink:href="#25" y="49.933"/><use xlink:href="#26" y="52.104"/><use xlink:href="#27" y="54.275"/><use xlink:href="#28" y="56.446"/><use xlink:href="#29" y="58.617"/><use xlink:href="#30" y="60.788"/><use xlink:href="#31" y="62.959"/><use xlink:href="#32" y="65.13"/><use xlink:href="#33" y="67.301"/></svg><svg x="2563"><use xlink:href="#a"/><use xlink:href="#b" x="-.004" y="69.447"/><use xlink:href="#2"/><use xlink:href="#3" y="2.171"/><use xlink:href="#4" y="4.342"/><use xlink:href="#5" y="6.513"/><use xlink:href="#6" y="8.684"/><use xlink:href="#7" y="10.855"/><use xlink:href="#8" y="13.026"/><use xlink:href="#9" y="15.197"/><use xlink:href="#10" y="17.368"/><use xlink:href="#11" y="19.539"/><use xlink:href="#12" y="21.71"/><use xlink:href="#13" y="23.881"/><use xlink:href="#14" y="26.052"/><use xlink:href="#15" y="28.223"/><use xlink:href="#16" y="30.394"/><use xlink:href="#17" y="32.565"/><use xlink:href="#18" y="34.736"/><use xlink:href="#19" y="36.907"/><use xlink:href="#20" y="39.078"/><use xlink:href="#21" y="41.249"/><use xlink:href="#22" y="43.42"/><use xlink:href="#23" y="45.591"/><use xlink:href="#24" y="47.762"/><use xlink:href="#25" y="49.933"/><use xlink:href="#26" y="52.104"/><use xlink:href="#27" y="54.275"/><use xlink:href="#28" y="56.446"/><use xlink:href="#29" y="58.617"/><use xlink:href="#30" y="60.788"/><use xlink:href="#31" y="62.959"/><use xlink:href="#32" y="65.13"/><use xlink:href="#33" y="67.301"/></svg><svg x="2796"><use xlink:href="#a"/><use xlink:href="#b" x="-.004" y="88.986"/><use xlink:href="#2"/><use xlink:href="#3" y="2.171"/><use xlink:href="#4" y="4.342"/><use xlink:href="#5" y="6.513"/><use xlink:href="#6" y="8.684"/><use xlink:href="#7" y="10.855"/><use xlink:href="#8" y="13.026"/><use xlink:href="#9" y="15.197"/><use xlink:href="#10" y="17.368"/><use xlink:href="#11" y="19.539"/><use xlink:href="#12" y="21.71"/><use xlink:href="#13" y="23.881"/><use xlink:href="#14" y="26.052"/><use xlink:href="#15" y="28.223"/><use xlink:href="#16" y="30.394"/><use xlink:href="#17" y="32.565"/><use xlink:href="#18" y="34.736"/><use xlink:href="#19" y="36.907"/><use xlink:href="#20" y="39.078"/><use xlink:href="#21" y="41.249"/><use xlink:href="#22" y="43.42"/><use xlink:href="#23" y="45.591"/><use xlink:href="#24" y="47.762"/><use xlink:href="#25" y="49.933"/><use xlink:href="#26" y="52.104"/><use xlink:href="#27" y="54.275"/><use xlink:href="#28" y="56.446"/><use xlink:href="#29" y="58.617"/><use xlink:href="#30" y="60.788"/><use xlink:href="#31" y="62.959"/><use xlink:href="#32" y="65.13"/><use xlink:href="#33" y="67.301"/><use xlink:href="#34" y="69.472"/><use xlink:href="#35" y="71.643"/><use xlink:href="#36" y="73.814"/><use xlink:href="#37" y="75.985"/><use xlink:href="#38" y="78.156"/><use xlink:href="#39" y="80.327"/><use xlink:href="#40" y="82.498"/><use xlink:href="#41" y="84.669"/><use xlink:href="#42" y="86.84"/></svg><svg x="3029"><use xlink:href="#a"/><use xlink:href="#b" x="-.004" y="91.157"/><use xlink:href="#2"/><use xlink:href="#3" y="2.171"/><use xlink:href="#4" y="4.342"/><use xlink:href="#5" y="6.513"/><use xlink:href="#6" y="8.684"/><use xlink:href="#7" y="10.855"/><use xlink:href="#8" y="13.026"/><use xlink:href="#9" y="15.197"/><use xlink:href="#10" y="17.368"/><use xlink:href="#11" y="19.539"/><use xlink:href="#12" y="21.71"/><use xlink:href="#13" y="23.881"/><use xlink:href="#14" y="26.052"/><use xlink:href="#15" y="28.223"/><use xlink:href="#16" y="30.394"/><use xlink:href="#17" y="32.565"/><use xlink:href="#18" y="34.736"/><use xlink:href="#19" y="36.907"/><use xlink:href="#20" y="39.078"/><use xlink:href="#21" y="41.249"/><use xlink:href="#22" y="43.42"/><use xlink:href="#23" y="45.591"/><use xlink:href="#24" y="47.762"/><use xlink:href="#25" y="49.933"/><use xlink:href="#26" y="52.104"/><use xlink:href="#27" y="54.275"/><use xlink:href="#28" y="56.446"/><use xlink:href="#29" y="58.617"/><use xlink:href="#30" y="60.788"/><use xlink:href="#31" y="62.959"/><use xlink:href="#32" y="65.13"/><use xlink:href="#33" y="67.301"/><use xlink:href="#34" y="69.472"/><use xlink:href="#35" y="71.643"/><use xlink:href="#36" y="73.814"/><use xlink:href="#37" y="75.985"/><use xlink:href="#38" y="78.156"/><use xlink:href="#39" y="80.327"/><use xlink:href="#40" y="82.498"/><use xlink:href="#41" y="84.669"/><use xlink:href="#42" y="86.84"/><use xlink:href="#43" y="89.011"/></svg><svg x="3262"><use xlink:href="#a"/><use xlink:href="#b" x="-.004" y="119.38"/><use xlink:href="#2"/><use xlink:href="#3" y="2.171"/><use xlink:href="#4" y="4.342"/><use xlink:href="#5" y="6.513"/><use xlink:href="#6" y="8.684"/><use xlink:href="#7" y="10.855"/><use xlink:href="#8" y="13.026"/><use xlink:href="#9" y="15.197"/><use xlink:href="#10" y="17.368"/><use xlink:href="#11" y="19.539"/><use xlink:href="#12" y="21.71"/><use xlink:href="#13" y="23.881"/><use xlink:href="#14" y="26.052"/><use xlink:href="#15" y="28.223"/><use xlink:href="#16" y="30.394"/><use xlink:href="#17" y="32.565"/><use xlink:href="#18" y="34.736"/><use xlink:href="#19" y="36.907"/><use xlink:href="#20" y="39.078"/><use xlink:href="#21" y="41.249"/><use xlink:href="#22" y="43.42"/><use xlink:href="#23" y="45.591"/><use xlink:href="#24" y="47.762"/><use xlink:href="#25" y="49.933"/><use xlink:href="#26" y="52.104"/><use xlink:href="#27" y="54.275"/><use xlink:href="#28" y="56.446"/><use xlink:href="#29" y="58.617"/><use xlink:href="#30" y="60.788"/><use xlink:href="#31" y="62.959"/><use xlink:href="#32" y="65.13"/><use xlink:href="#33" y="67.301"/><use xlink:href="#34" y="69.472"/><use xlink:href="#35" y="71.643"/><use xlink:href="#36" y="73.814"/><use xlink:href="#37" y="75.985"/><use xlink:href="#38" y="78.156"/><use xlink:href="#39" y="80.327"/><use xlink:href="#40" y="82.498"/><use xlink:href="#41" y="84.669"/><use xlink:href="#42" y="86.84"/><use xlink:href="#43" y="89.011"/><use xlink:href="#44" y="91.182"/><use xlink:href="#45" y="93.353"/><use xlink:href="#46" y="95.524"/><use xlink:href="#47" y="97.695"/><use xlink:href="#48" y="99.866"/><use xlink:href="#49" y="102.037"/><use xlink:href="#50" y="104.208"/><use xlink:href="#51" y="106.379"/><use xlink:href="#52" y="108.55"/><use xlink:href="#53" y="110.721"/><use xlink:href="#54" y="112.892"/><use xlink:href="#55" y="115.063"/><use xlink:href="#56" y="117.234"/></svg><svg x="3495"><use xlink:href="#a"/><use xlink:href="#b" x="-.004" y="121.551"/><use xlink:href="#14"/><use xlink:href="#15" y="2.171"/><use xlink:href="#16" y="4.342"/><use xlink:href="#17" y="6.513"/><use xlink:href="#18" y="8.684"/><use xlink:href="#19" y="10.855"/><use xlink:href="#20" y="13.026"/><use xlink:href="#21" y="15.197"/><use xlink:href="#22" y="17.368"/><use xlink:href="#23" y="19.539"/><use xlink:href="#24" y="21.71"/><use xlink:href="#25" y="23.881"/><use xlink:href="#26" y="26.052"/><use xlink:href="#27" y="28.223"/><use xlink:href="#28" y="30.394"/><use xlink:href="#29" y="32.565"/><use xlink:href="#30" y="34.736"/><use xlink:href="#31" y="36.907"/><use xlink:href="#32" y="39.078"/><use xlink:href="#33" y="41.249"/><use xlink:href="#34" y="43.42"/><use xlink:href="#35" y="45.591"/><use xlink:href="#36" y="47.762"/><use xlink:href="#37" y="49.933"/><use xlink:href="#38" y="52.104"/><use xlink:href="#39" y="54.275"/><use xlink:href="#40" y="56.446"/><use xlink:href="#41" y="58.617"/><use xlink:href="#42" y="60.788"/><use xlink:href="#43" y="62.959"/><use xlink:href="#44" y="65.13"/><use xlink:href="#45" y="67.301"/><use xlink:href="#46" y="69.472"/><use xlink:href="#47" y="71.643"/><use xlink:href="#48" y="73.814"/><use xlink:href="#49" y="75.985"/><use xlink:href="#50" y="78.156"/><use xlink:href="#51" y="80.327"/><use xlink:href="#52" y="82.498"/><use xlink:href="#53" y="84.669"/><use xlink:href="#54" y="86.84"/><use xlink:href="#55" y="89.011"/><use xlink:href="#56" y="91.182"/><use xlink:href="#57" y="93.353"/><use xlink:href="#58" y="95.524"/><use xlink:href="#59" y="97.695"/><use xlink:href="#60" y="99.866"/><use xlink:href="#61" y="102.037"/><use xlink:href="#62" y="104.208"/><use xlink:href="#63" y="106.379"/><use xlink:href="#64" y="108.55"/><use xlink:href="#65" y="110.721"/><use xlink:href="#66" y="112.892"/><use xlink:href="#67" y="115.063"/><use xlink:href="#68" y="117.234"/><use xlink:href="#69" y="119.405"/></svg><svg x="3728"><use xlink:href="#a"/><use xlink:href="#b" x="-.004" y="121.551"/><use xlink:href="#15"/><use xlink:href="#16" y="2.171"/><use xlink:href="#17" y="4.342"/><use xlink:href="#18" y="6.513"/><use xlink:href="#19" y="8.684"/><use xlink:href="#20" y="10.855"/><use xlink:href="#21" y="13.026"/><use xlink:href="#22" y="15.197"/><use xlink:href="#23" y="17.368"/><use xlink:href="#24" y="19.539"/><use xlink:href="#25" y="21.71"/><use xlink:href="#26" y="23.881"/><use xlink:href="#27" y="26.052"/><use xlink:href="#28" y="28.223"/><use xlink:href="#29" y="30.394"/><use xlink:href="#30" y="32.565"/><use xlink:href="#31" y="34.736"/><use xlink:href="#32" y="36.907"/><use xlink:href="#33" y="39.078"/><use xlink:href="#34" y="41.249"/><use xlink:href="#35" y="43.42"/><use xlink:href="#36" y="45.591"/><use xlink:href="#37" y="47.762"/><use xlink:href="#38" y="49.933"/><use xlink:href="#39" y="52.104"/><use xlink:href="#40" y="54.275"/><use xlink:href="#41" y="56.446"/><use xlink:href="#42" y="58.617"/><use xlink:href="#43" y="60.788"/><use xlink:href="#44" y="62.959"/><use xlink:href="#45" y="65.13"/><use xlink:href="#46" y="67.301"/><use xlink:href="#47" y="69.472"/><use xlink:href="#48" y="71.643"/><use xlink:href="#49" y="73.814"/><use xlink:href="#50" y="75.985"/><use xlink:href="#51" y="78.156"/><use xlink:href="#52" y="80.327"/><use xlink:href="#53" y="82.498"/><use xlink:href="#54" y="84.669"/><use xlink:href="#55" y="86.84"/><use xlink:href="#56" y="89.011"/><use xlink:href="#57" y="91.182"/><use xlink:href="#58" y="93.353"/><use xlink:href="#59" y="95.524"/><use xlink:href="#60" y="97.695"/><use xlink:href="#61" y="99.866"/><use xlink:href="#62" y="102.037"/><use xlink:href="#63" y="104.208"/><use xlink:href="#64" y="106.379"/><use xlink:href="#65" y="108.55"/><use xlink:href="#66" y="110.721"/><use xlink:href="#67" y="112.892"/><use xlink:href="#68" y="115.063"/><use xlink:href="#69" y="117.234"/><use xlink:href="#70" y="119.405"/></svg><svg x="3961"><use xlink:href="#a"/><use xlink:href="#b" x="-.004" y="121.551"/><use xlink:href="#16"/><use xlink:href="#17" y="2.171"/><use xlink:href="#18" y="4.342"/><use xlink:href="#19" y="6.513"/><use xlink:href="#20" y="8.684"/><use xlink:href="#21" y="10.855"/><use xlink:href="#22" y="13.026"/><use xlink:href="#23" y="15.197"/><use xlink:href="#24" y="17.368"/><use xlink:href="#25" y="19.539"/><use xlink:href="#26" y="21.71"/><use xlink:href="#27" y="23.881"/><use xlink:href="#28" y="26.052"/><use xlink:href="#29" y="28.223"/><use xlink:href="#30" y="30.394"/><use xlink:href="#31" y="32.565"/><use xlink:href="#32" y="34.736"/><use xlink:href="#33" y="36.907"/><use xlink:href="#34" y="39.078"/><use xlink:href="#35" y="41.249"/><use xlink:href="#36" y="43.42"/><use xlink:href="#37" y="45.591"/><use xlink:href="#38" y="47.762"/><use xlink:href="#39" y="49.933"/><use xlink:href="#40" y="52.104"/><use xlink:href="#41" y="54.275"/><use xlink:href="#42" y="56.446"/><use xlink:href="#43" y="58.617"/><use xlink:href="#44" y="60.788"/><use xlink:href="#45" y="62.959"/><use xlink:href="#46" y="65.13"/><use xlink:href="#47" y="67.301"/><use xlink:href="#48" y="69.472"/><use xlink:href="#49" y="71.643"/><use xlink:href="#50" y="73.814"/><use xlink:href="#51" y="75.985"/><use xlink:href="#52" y="78.156"/><use xlink:href="#53" y="80.327"/><use xlink:href="#54" y="82.498"/><use xlink:href="#55" y="84.669"/><use xlink:href="#56" y="86.84"/><use xlink:href="#57" y="89.011"/><use xlink:href="#58" y="91.182"/><use xlink:href="#59" y="93.353"/><use xlink:href="#60" y="95.524"/><use xlink:href="#61" y="97.695"/><use xlink:href="#62" y="99.866"/><use xlink:href="#63" y="102.037"/><use xlink:href="#64" y="104.208"/><use xlink:href="#65" y="106.379"/><use xlink:href="#66" y="108.55"/><use xlink:href="#67" y="110.721"/><use xlink:href="#68" y="112.892"/><use xlink:href="#69" y="115.063"/><use xlink:href="#70" y="117.234"/><use xlink:href="#71" y="119.405"/></svg><svg x="4194"><use xlink:href="#a"/><use xlink:href="#b" x="-.004" y="121.551"/><use xlink:href="#29"/><use xlink:href="#30" y="2.171"/><use xlink:href="#31" y="4.342"/><use xlink:href="#32" y="6.513"/><use xlink:href="#33" y="8.684"/><use xlink:href="#34" y="10.855"/><use xlink:href="#35" y="13.026"/><use xlink:href="#36" y="15.197"/><use xlink:href="#37" y="17.368"/><use xlink:href="#38" y="19.539"/><use xlink:href="#39" y="21.71"/><use xlink:href="#40" y="23.881"/><use xlink:href="#41" y="26.052"/><use xlink:href="#42" y="28.223"/><use xlink:href="#43" y="30.394"/><use xlink:href="#44" y="32.565"/><use xlink:href="#45" y="34.736"/><use xlink:href="#46" y="36.907"/><use xlink:href="#47" y="39.078"/><use xlink:href="#48" y="41.249"/><use xlink:href="#49" y="43.42"/><use xlink:href="#50" y="45.591"/><use xlink:href="#51" y="47.762"/><use xlink:href="#52" y="49.933"/><use xlink:href="#53" y="52.104"/><use xlink:href="#54" y="54.275"/><use xlink:href="#55" y="56.446"/><use xlink:href="#56" y="58.617"/><use xlink:href="#57" y="60.788"/><use xlink:href="#58" y="62.959"/><use xlink:href="#59" y="65.13"/><use xlink:href="#60" y="67.301"/><use xlink:href="#61" y="69.472"/><use xlink:href="#62" y="71.643"/><use xlink:href="#63" y="73.814"/><use xlink:href="#64" y="75.985"/><use xlink:href="#65" y="78.156"/><use xlink:href="#66" y="80.327"/><use xlink:href="#67" y="82.498"/><use xlink:href="#68" y="84.669"/><use xlink:href="#69" y="86.84"/><use xlink:href="#70" y="89.011"/><use xlink:href="#71" y="91.182"/><use xlink:href="#72" y="93.353"/><use xlink:href="#73" y="95.524"/><use xlink:href="#74" y="97.695"/><use xlink:href="#35" y="99.866"/><use xlink:href="#75" y="102.037"/><use xlink:href="#76" y="104.208"/><use xlink:href="#77" y="106.379"/><use xlink:href="#21" y="108.55"/><use xlink:href="#78" y="110.721"/><use xlink:href="#79" y="112.892"/><use xlink:href="#80" y="115.063"/><use xlink:href="#81" y="117.234"/><use xlink:href="#82" y="119.405"/></svg><svg x="4427"><use xlink:href="#a"/><use xlink:href="#b" x="-.004" y="121.551"/><use xlink:href="#30"/><use xlink:href="#31" y="2.171"/><use xlink:href="#32" y="4.342"/><use xlink:href="#33" y="6.513"/><use xlink:href="#34" y="8.684"/><use xlink:href="#35" y="10.855"/><use xlink:href="#36" y="13.026"/><use xlink:href="#37" y="15.197"/><use xlink:href="#38" y="17.368"/><use xlink:href="#39" y="19.539"/><use xlink:href="#40" y="21.71"/><use xlink:href="#41" y="23.881"/><use xlink:href="#42" y="26.052"/><use xlink:href="#43" y="28.223"/><use xlink:href="#44" y="30.394"/><use xlink:href="#45" y="32.565"/><use xlink:href="#46" y="34.736"/><use xlink:href="#47" y="36.907"/><use xlink:href="#48" y="39.078"/><use xlink:href="#49" y="41.249"/><use xlink:href="#50" y="43.42"/><use xlink:href="#51" y="45.591"/><use xlink:href="#52" y="47.762"/><use xlink:href="#53" y="49.933"/><use xlink:href="#54" y="52.104"/><use xlink:href="#55" y="54.275"/><use xlink:href="#56" y="56.446"/><use xlink:href="#57" y="58.617"/><use xlink:href="#58" y="60.788"/><use xlink:href="#59" y="62.959"/><use xlink:href="#60" y="65.13"/><use xlink:href="#61" y="67.301"/><use xlink:href="#62" y="69.472"/><use xlink:href="#63" y="71.643"/><use xlink:href="#64" y="73.814"/><use xlink:href="#65" y="75.985"/><use xlink:href="#66" y="78.156"/><use xlink:href="#67" y="80.327"/><use xlink:href="#68" y="82.498"/><use xlink:href="#69" y="84.669"/><use xlink:href="#70" y="86.84"/><use xlink:href="#71" y="89.011"/><use xlink:href="#72" y="91.182"/><use xlink:href="#73" y="93.353"/><use xlink:href="#74" y="95.524"/><use xlink:href="#35" y="97.695"/><use xlink:href="#75" y="99.866"/><use xlink:href="#76" y="102.037"/><use xlink:href="#77" y="104.208"/><use xlink:href="#21" y="106.379"/><use xlink:href="#78" y="108.55"/><use xlink:href="#79" y="110.721"/><use xlink:href="#80" y="112.892"/><use xlink:href="#81" y="115.063"/><use xlink:href="#82" y="117.234"/><use xlink:href="#83" y="119.405"/></svg><svg x="4660"><use xlink:href="#a"/><use xlink:href="#b" x="-.004" y="121.551"/><use xlink:href="#31"/><use xlink:href="#32" y="2.171"/><use xlink:href="#33" y="4.342"/><use xlink:href="#34" y="6.513"/><use xlink:href="#35" y="8.684"/><use xlink:href="#36" y="10.855"/><use xlink:href="#37" y="13.026"/><use xlink:href="#38" y="15.197"/><use xlink:href="#39" y="17.368"/><use xlink:href="#40" y="19.539"/><use xlink:href="#41" y="21.71"/><use xlink:href="#42" y="23.881"/><use xlink:href="#43" y="26.052"/><use xlink:href="#44" y="28.223"/><use xlink:href="#45" y="30.394"/><use xlink:href="#46" y="32.565"/><use xlink:href="#47" y="34.736"/><use xlink:href="#48" y="36.907"/><use xlink:href="#49" y="39.078"/><use xlink:href="#50" y="41.249"/><use xlink:href="#51" y="43.42"/><use xlink:href="#52" y="45.591"/><use xlink:href="#53" y="47.762"/><use xlink:href="#54" y="49.933"/><use xlink:href="#55" y="52.104"/><use xlink:href="#56" y="54.275"/><use xlink:href="#57" y="56.446"/><use xlink:href="#58" y="58.617"/><use xlink:href="#59" y="60.788"/><use xlink:href="#60" y="62.959"/><use xlink:href="#61" y="65.13"/><use xlink:href="#62" y="67.301"/><use xlink:href="#63" y="69.472"/><use xlink:href="#64" y="71.643"/><use xlink:href="#65" y="73.814"/><use xlink:href="#66" y="75.985"/><use xlink:href="#67" y="78.156"/><use xlink:href="#68" y="80.327"/><use xlink:href="#69" y="82.498"/><use xlink:href="#70" y="84.669"/><use xlink:href="#71" y="86.84"/><use xlink:href="#72" y="89.011"/><use xlink:href="#73" y="91.182"/><use xlink:href="#74" y="93.353"/><use xlink:href="#35" y="95.524"/><use xlink:href="#75" y="97.695"/><use xlink:href="#76" y="99.866"/><use xlink:href="#77" y="102.037"/><use xlink:href="#21" y="104.208"/><use xlink:href="#78" y="106.379"/><use xlink:href="#79" y="108.55"/><use xlink:href="#80" y="110.721"/><use xlink:href="#81" y="112.892"/><use xlink:href="#82" y="115.063"/><use xlink:href="#83" y="117.234"/><use xlink:href="#84" y="119.405"/></svg><svg x="4893"><use xlink:href="#a"/><use xlink:href="#b" x="-.004" y="121.551"/><use xlink:href="#32"/><use xlink:href="#33" y="2.171"/><use xlink:href="#34" y="4.342"/><use xlink:href="#35" y="6.513"/><use xlink:href="#36" y="8.684"/><use xlink:href="#37" y="10.855"/><use xlink:href="#38" y="13.026"/><use xlink:href="#39" y="15.197"/><use xlink:href="#40" y="17.368"/><use xlink:href="#41" y="19.539"/><use xlink:href="#42" y="21.71"/><use xlink:href="#43" y="23.881"/><use xlink:href="#44" y="26.052"/><use xlink:href="#45" y="28.223"/><use xlink:href="#46" y="30.394"/><use xlink:href="#47" y="32.565"/><use xlink:href="#48" y="34.736"/><use xlink:href="#49" y="36.907"/><use xlink:href="#50" y="39.078"/><use xlink:href="#51" y="41.249"/><use xlink:href="#52" y="43.42"/><use xlink:href="#53" y="45.591"/><use xlink:href="#54" y="47.762"/><use xlink:href="#55" y="49.933"/><use xlink:href="#56" y="52.104"/><use xlink:href="#57" y="54.275"/><use xlink:href="#58" y="56.446"/><use xlink:href="#59" y="58.617"/><use xlink:href="#60" y="60.788"/><use xlink:href="#61" y="62.959"/><use xlink:href="#62" y="65.13"/><use xlink:href="#63" y="67.301"/><use xlink:href="#64" y="69.472"/><use xlink:href="#65" y="71.643"/><use xlink:href="#66" y="73.814"/><use xlink:href="#67" y="75.985"/><use xlink:href="#68" y="78.156"/><use xlink:href="#69" y="80.327"/><use xlink:href="#70" y="82.498"/><use xlink:href="#71" y="84.669"/><use xlink:href="#72" y="86.84"/><use xlink:href="#73" y="89.011"/><use xlink:href="#74" y="91.182"/><use xlink:href="#35" y="93.353"/><use xlink:href="#75" y="95.524"/><use xlink:href="#76" y="97.695"/><use xlink:href="#77" y="99.866"/><use xlink:href="#21" y="102.037"/><use xlink:href="#78" y="104.208"/><use xlink:href="#79" y="106.379"/><use xlink:href="#80" y="108.55"/><use xlink:href="#81" y="110.721"/><use xlink:href="#82" y="112.892"/><use xlink:href="#83" y="115.063"/><use xlink:href="#84" y="117.234"/><use xlink:href="#85" y="119.405"/></svg><svg x="5126"><use xlink:href="#a"/><use xlink:href="#b" x="-.004" y="121.551"/><use xlink:href="#32"/><use xlink:href="#33" y="2.171"/><use xlink:href="#34" y="4.342"/><use xlink:href="#35" y="6.513"/><use xlink:href="#36" y="8.684"/><use xlink:href="#37" y="10.855"/><use xlink:href="#38" y="13.026"/><use xlink:href="#39" y="15.197"/><use xlink:href="#40" y="17.368"/><use xlink:href="#41" y="19.539"/><use xlink:href="#42" y="21.71"/><use xlink:href="#43" y="23.881"/><use xlink:href="#44" y="26.052"/><use xlink:href="#45" y="28.223"/><use xlink:href="#46" y="30.394"/><use xlink:href="#47" y="32.565"/><use xlink:href="#48" y="34.736"/><use xlink:href="#49" y="36.907"/><use xlink:href="#50" y="39.078"/><use xlink:href="#51" y="41.249"/><use xlink:href="#52" y="43.42"/><use xlink:href="#53" y="45.591"/><use xlink:href="#54" y="47.762"/><use xlink:href="#55" y="49.933"/><use xlink:href="#56" y="52.104"/><use xlink:href="#57" y="54.275"/><use xlink:href="#58" y="56.446"/><use xlink:href="#59" y="58.617"/><use xlink:href="#60" y="60.788"/><use xlink:href="#61" y="62.959"/><use xlink:href="#62" y="65.13"/><use xlink:href="#63" y="67.301"/><use xlink:href="#64" y="69.472"/><use xlink:href="#65" y="71.643"/><use xlink:href="#66" y="73.814"/><use xlink:href="#67" y="75.985"/><use xlink:href="#68" y="78.156"/><use xlink:href="#69" y="80.327"/><use xlink:href="#70" y="82.498"/><use xlink:href="#71" y="84.669"/><use xlink:href="#72" y="86.84"/><use xlink:href="#73" y="89.011"/><use xlink:href="#74" y="91.182"/><use xlink:href="#35" y="93.353"/><use xlink:href="#75" y="95.524"/><use xlink:href="#76" y="97.695"/><use xlink:href="#77" y="99.866"/><use xlink:href="#21" y="102.037"/><use xlink:href="#78" y="104.208"/><use xlink:href="#79" y="106.379"/><use xlink:href="#80" y="108.55"/><use xlink:href="#81" y="110.721"/><use xlink:href="#82" y="112.892"/><use xlink:href="#83" y="115.063"/><use xlink:href="#84" y="117.234"/><use xlink:href="#85" y="119.405"/></svg><svg x="5359"><use xlink:href="#a"/><use xlink:href="#b" x="1.996" y="121.551"/><use xlink:href="#32"/><use xlink:href="#33" y="2.171"/><use xlink:href="#34" y="4.342"/><use xlink:href="#35" y="6.513"/><use xlink:href="#36" y="8.684"/><use xlink:href="#37" y="10.855"/><use xlink:href="#38" y="13.026"/><use xlink:href="#39" y="15.197"/><use xlink:href="#40" y="17.368"/><use xlink:href="#41" y="19.539"/><use xlink:href="#42" y="21.71"/><use xlink:href="#43" y="23.881"/><use xlink:href="#44" y="26.052"/><use xlink:href="#45" y="28.223"/><use xlink:href="#46" y="30.394"/><use xlink:href="#47" y="32.565"/><use xlink:href="#48" y="34.736"/><use xlink:href="#49" y="36.907"/><use xlink:href="#50" y="39.078"/><use xlink:href="#51" y="41.249"/><use xlink:href="#52" y="43.42"/><use xlink:href="#53" y="45.591"/><use xlink:href="#54" y="47.762"/><use xlink:href="#55" y="49.933"/><use xlink:href="#56" y="52.104"/><use xlink:href="#57" y="54.275"/><use xlink:href="#58" y="56.446"/><use xlink:href="#59" y="58.617"/><use xlink:href="#60" y="60.788"/><use xlink:href="#61" y="62.959"/><use xlink:href="#62" y="65.13"/><use xlink:href="#63" y="67.301"/><use xlink:href="#64" y="69.472"/><use xlink:href="#65" y="71.643"/><use xlink:href="#66" y="73.814"/><use xlink:href="#67" y="75.985"/><use xlink:href="#68" y="78.156"/><use xlink:href="#69" y="80.327"/><use xlink:href="#70" y="82.498"/><use xlink:href="#71" y="84.669"/><use xlink:href="#72" y="86.84"/><use xlink:href="#73" y="89.011"/><use xlink:href="#74" y="91.182"/><use xlink:href="#35" y="93.353"/><use xlink:href="#75" y="95.524"/><use xlink:href="#76" y="97.695"/><use xlink:href="#77" y="99.866"/><use xlink:href="#21" y="102.037"/><use xlink:href="#78" y="104.208"/><use xlink:href="#79" y="106.379"/><use xlink:href="#80" y="108.55"/><use xlink:href="#81" y="110.721"/><use xlink:href="#82" y="112.892"/><use xlink:href="#83" y="115.063"/><use xlink:href="#84" y="117.234"/><use xlink:href="#85" y="119.405"/><use xlink:href="#1" y="121.576"/></svg><svg x="5592"><use xlink:href="#a"/><use xlink:href="#b" x="-.004" y="121.551"/><use xlink:href="#33"/><use xlink:href="#34" y="2.171"/><use xlink:href="#35" y="4.342"/><use xlink:href="#36" y="6.513"/><use xlink:href="#37" y="8.684"/><use xlink:href="#38" y="10.855"/><use xlink:href="#39" y="13.026"/><use xlink:href="#40" y="15.197"/><use xlink:href="#41" y="17.368"/><use xlink:href="#42" y="19.539"/><use xlink:href="#43" y="21.71"/><use xlink:href="#44" y="23.881"/><use xlink:href="#45" y="26.052"/><use xlink:href="#46" y="28.223"/><use xlink:href="#47" y="30.394"/><use xlink:href="#48" y="32.565"/><use xlink:href="#49" y="34.736"/><use xlink:href="#50" y="36.907"/><use xlink:href="#51" y="39.078"/><use xlink:href="#52" y="41.249"/><use xlink:href="#53" y="43.42"/><use xlink:href="#54" y="45.591"/><use xlink:href="#55" y="47.762"/><use xlink:href="#56" y="49.933"/><use xlink:href="#57" y="52.104"/><use xlink:href="#58" y="54.275"/><use xlink:href="#59" y="56.446"/><use xlink:href="#60" y="58.617"/><use xlink:href="#61" y="60.788"/><use xlink:href="#62" y="62.959"/><use xlink:href="#63" y="65.13"/><use xlink:href="#64" y="67.301"/><use xlink:href="#65" y="69.472"/><use xlink:href="#66" y="71.643"/><use xlink:href="#67" y="73.814"/><use xlink:href="#68" y="75.985"/><use xlink:href="#69" y="78.156"/><use xlink:href="#70" y="80.327"/><use xlink:href="#71" y="82.498"/><use xlink:href="#72" y="84.669"/><use xlink:href="#73" y="86.84"/><use xlink:href="#74" y="89.011"/><use xlink:href="#35" y="91.182"/><use xlink:href="#75" y="93.353"/><use xlink:href="#76" y="95.524"/><use xlink:href="#77" y="97.695"/><use xlink:href="#21" y="99.866"/><use xlink:href="#78" y="102.037"/><use xlink:href="#79" y="104.208"/><use xlink:href="#80" y="106.379"/><use xlink:href="#81" y="108.55"/><use xlink:href="#82" y="110.721"/><use xlink:href="#83" y="112.892"/><use xlink:href="#84" y="115.063"/><use xlink:href="#85" y="117.234"/><use xlink:href="#1" y="119.405"/></svg></svg></g></g></svg></svg>