<svg xmlns="http://www.w3.org/2000/svg" xmlns:xlink="http://www.w3.org/1999/xlink" width="1040" height="1145.5"><rect width="1040" height="1145.5" rx="5" ry="5" class="a"/><svg y="0%" x="0%"><circle cx="20" cy="20" r="6" fill="#ff5f58"/><circle cx="40" cy="20" r="6" fill="#ffbd2e"/><circle cx="60" cy="20" r="6" fill="#18c132"/></svg><svg height="1085.5" viewBox="0 0 100 108.55" width="1000" x="15" xmlns="http://www.w3.org/2000/svg" xmlns:xlink="http://www.w3.org/1999/xlink" y="50"><style>@keyframes k{0%{transform:translateX(0)}.8%{transform:translateX(-100px)}7.8%{transform:translateX(-200px)}8.9%{transform:translateX(-300px)}12.1%{transform:translateX(-400px)}21.3%{transform:translateX(-500px)}30.5%{transform:translateX(-600px)}39.7%{transform:translateX(-700px)}39.8%{transform:translateX(-900px)}40%{transform:translateX(-1000px)}40.3%{transform:translateX(-1100px)}49.5%{transform:translateX(-1200px)}49.6%{transform:translateX(-1400px)}58.8%{transform:translateX(-1500px)}59.1%{transform:translateX(-1800px)}59.2%{transform:translateX(-1900px)}68.4%{transform:translateX(-2000px)}77.6%{transform:translateX(-2100px)}86.8%{transform:translateX(-2200px)}90.8%{transform:translateX(-2300px)}to{transform:translateX(-2400px)}}.a{fill:#282d35}.f,.g,.h,.i{fill:#b9c0cb;white-space:pre}.g,.h,.i{fill:#a8cc8c;font-weight:700}.h,.i{fill:#dbab79}.i{fill:#b9bfca}</style><g font-family="Monaco,Consolas,Menlo,'Bitstream Vera Sans Mono','Powerline Symbols',monospace" font-size="1.67"><defs><symbol id="1"><text y="1.67" class="f">$</text></symbol><symbol id="2"><text y="1.67" class="f">$</text><text x="2.004" y="1.67" class="f">python3</text><text x="10.02" y="1.67" class="f">maigret</text><text x="18.036" y="1.67" class="f">--ids</text><text x="24.048" y="1.67" class="f">--print-found</text><text x="38.076" y="1.67" class="f">--skip-errors</text><text x="52.104" y="1.67" class="f">alexaimephotographycars</text></symbol><symbol id="3"><text y="1.67" class="g">[</text><text x="1.002" y="1.67" class="h">*</text><text x="2.004" y="1.67" class="g">]</text><text x="4.008" y="1.67" class="g">Checking</text><text x="13.026" y="1.67" class="g">username</text><text x="22.044" y="1.67" class="i">alexaimephotographycars</text><text x="46.092" y="1.67" class="g">on:</text></symbol><symbol id="4"><text y="1.67" class="i">[</text><text x="1.002" y="1.67" class="g">+</text><text x="2.004" y="1.67" class="i">]</text><text x="4.008" y="1.67" class="g">500px:</text><text x="11.022" y="1.67" class="f">https://500px.com/p/alexaimephotographycars</text></symbol><symbol id="5"><text x="1.002" y="1.67" class="f">┣╸uid:</text><text x="8.016" y="1.67" class="f">dXJpOm5vZGU6VXNlcjoyNjQwMzQxNQ==</text></symbol><symbol id="6"><text x="1.002" y="1.67" class="f">┣╸legacy_id:</text><text x="14.028" y="1.67" class="f">26403415</text></symbol><symbol id="7"><text x="1.002" y="1.67" class="f">┣╸username:</text><text x="13.026" y="1.67" class="f">alexaimephotographycars</text></symbol><symbol id="8"><text x="1.002" y="1.67" class="f">┣╸name:</text><text x="9.018" y="1.67" class="f">Alex</text><text x="14.028" y="1.67" class="f">Aimé</text></symbol><symbol id="9"><text x="1.002" y="1.67" class="f">┣╸website:</text><text x="12.024" y="1.67" class="f">www.flickr.com/photos/alexaimephotography/</text></symbol><symbol id="10"><text x="1.002" y="1.67" class="f">┣╸facebook_link:</text><text x="19.038" y="1.67" class="f">www.instagram.com/street.reality.photography/</text></symbol><symbol id="11"><text x="1.002" y="1.67" class="f">┣╸instagram_username:</text><text x="23.046" y="1.67" class="f">alexaimephotography</text></symbol><symbol id="12"><text x="1.002" y="1.67" class="f">┗╸twitter_username:</text><text x="21.042" y="1.67" class="f">Alexaimephotogr</text></symbol><symbol id="13"><text y="1.67" class="g">[</text><text x="1.002" y="1.67" class="h">*</text><text x="2.004" y="1.67" class="g">]</text><text x="4.008" y="1.67" class="g">Checking</text><text x="13.026" y="1.67" class="g">username</text><text x="22.044" y="1.67" class="i">alexaimephotography</text><text x="42.084" y="1.67" class="g">on:</text></symbol><symbol id="14"><text y="1.67" class="i">[</text><text x="1.002" y="1.67" class="g">+</text><text x="2.004" y="1.67" class="i">]</text><text x="4.008" y="1.67" class="g">DeviantART:</text><text x="16.032" y="1.67" class="f">https://alexaimephotography.deviantart.com</text></symbol><symbol id="15"><text x="1.002" y="1.67" class="f">┣╸country:</text><text x="12.024" y="1.67" class="f">France</text></symbol><symbol id="16"><text x="1.002" y="1.67" class="f">┣╸registered_for_seconds:</text><text x="27.054" y="1.67" class="f">55041733</text></symbol><symbol id="17"><text x="1.002" y="1.67" class="f">┣╸gender:</text><text x="11.022" y="1.67" class="f">male</text></symbol><symbol id="18"><text x="1.002" y="1.67" class="f">┣╸username:</text><text x="13.026" y="1.67" class="f">Alexaimephotography</text></symbol><symbol id="19"><text x="1.002" y="1.67" class="f">┣╸twitter_username:</text><text x="21.042" y="1.67" class="f">alexaimephotogr</text></symbol><symbol id="20"><text x="1.002" y="1.67" class="f">┣╸website:</text><text x="12.024" y="1.67" class="f">www.instagram.com/alexaimephotography/</text></symbol><symbol id="21"><text x="1.002" y="1.67" class="f">┗╸links:</text></symbol><symbol id="22"><text x="3.006" y="1.67" class="f">┗╸</text><text x="6.012" y="1.67" class="f">https://www.instagram.com/alexaimephotography/</text></symbol><symbol id="23"><text y="1.67" class="i">[</text><text x="1.002" y="1.67" class="g">+</text><text x="2.004" y="1.67" class="i">]</text><text x="4.008" y="1.67" class="g">EyeEm:</text><text x="11.022" y="1.67" class="f">https://www.eyeem.com/u/alexaimephotography</text></symbol><symbol id="24"><text x="1.002" y="1.67" class="f">┣╸eyeem_id:</text><text x="13.026" y="1.67" class="f">21974802</text></symbol><symbol id="25"><text x="1.002" y="1.67" class="f">┣╸eyeem_username:</text><text x="19.038" y="1.67" class="f">alexaimephotography</text></symbol><symbol id="26"><text x="1.002" y="1.67" class="f">┣╸fullname:</text><text x="13.026" y="1.67" class="f">Alex</text></symbol><symbol id="27"><text x="1.002" y="1.67" class="f">┣╸followers:</text><text x="14.028" y="1.67" class="f">10</text></symbol><symbol id="28"><text x="1.002" y="1.67" class="f">┣╸friends:</text><text x="12.024" y="1.67" class="f">2</text></symbol><symbol id="29"><text x="1.002" y="1.67" class="f">┣╸liked_photos:</text><text x="17.034" y="1.67" class="f">37</text></symbol><symbol id="30"><text x="1.002" y="1.67" class="f">┣╸photos:</text><text x="11.022" y="1.67" class="f">10</text></symbol><symbol id="31"><text x="1.002" y="1.67" class="f">┗╸facebook_uid:</text><text x="17.034" y="1.67" class="f">1534915183474093</text></symbol><symbol id="32"><text y="1.67" class="i">[</text><text x="1.002" y="1.67" class="g">+</text><text x="2.004" y="1.67" class="i">]</text><text x="4.008" y="1.67" class="g">Facebook:</text><text x="14.028" y="1.67" class="f">https://www.facebook.com/alexaimephotography</text></symbol><symbol id="33"><text y="1.67" class="i">[</text><text x="1.002" y="1.67" class="g">+</text><text x="2.004" y="1.67" class="i">]</text><text x="4.008" y="1.67" class="g">Gramho:</text><text x="12.024" y="1.67" class="f">https://gramho.com/explore-hashtag/alexaimephotography</text></symbol><symbol id="34"><text y="1.67" class="i">[</text><text x="1.002" y="1.67" class="g">+</text><text x="2.004" y="1.67" class="i">]</text><text x="4.008" y="1.67" class="g">Instagram:</text><text x="15.03" y="1.67" class="f">https://www.instagram.com/alexaimephotography</text></symbol><symbol id="35"><text x="1.002" y="1.67" class="f">┣╸username:</text><text x="13.026" y="1.67" class="f">alexaimephotography</text></symbol><symbol id="36"><text x="1.002" y="1.67" class="f">┣╸full_name:</text><text x="14.028" y="1.67" class="f">Alexaimephotography</text></symbol><symbol id="37"><text x="1.002" y="1.67" class="f">┣╸id:</text><text x="7.014" y="1.67" class="f">6828488620</text></symbol><symbol id="38"><text x="1.002" y="1.67" class="f">┣╸biography:</text><text x="14.028" y="1.67" class="f">🇮🇹</text><text x="19.038" y="1.67" class="f">🇲🇫</text><text x="24.048" y="1.67" class="f">🇩🇪</text></symbol><symbol id="39"><text y="1.67" class="f">Amateur</text><text x="8.016" y="1.67" class="f">photographer</text></symbol><symbol id="40"><text y="1.67" class="f">Follow</text><text x="7.014" y="1.67" class="f">me</text><text x="10.02" y="1.67" class="f">@street.reality.photography</text></symbol><symbol id="41"><text y="1.67" class="f">Sony</text><text x="5.01" y="1.67" class="f">A7ii</text></symbol><symbol id="42"><text x="1.002" y="1.67" class="f">┗╸external_url:</text><text x="17.034" y="1.67" class="f">https://www.flickr.com/photos/alexaimephotography2020/</text></symbol><symbol id="43"><text y="1.67" class="i">[</text><text x="1.002" y="1.67" class="g">+</text><text x="2.004" y="1.67" class="i">]</text><text x="4.008" y="1.67" class="g">Picuki:</text><text x="12.024" y="1.67" class="f">https://www.picuki.com/profile/alexaimephotography</text></symbol><symbol id="44"><text y="1.67" class="i">[</text><text x="1.002" y="1.67" class="g">+</text><text x="2.004" y="1.67" class="i">]</text><text x="4.008" y="1.67" class="g">Pinterest:</text><text x="15.03" y="1.67" class="f">https://www.pinterest.com/alexaimephotography/</text></symbol><symbol id="45"><text x="1.002" y="1.67" class="f">┣╸pinterest_username:</text><text x="23.046" y="1.67" class="f">alexaimephotography</text></symbol><symbol id="46"><text x="1.002" y="1.67" class="f">┣╸fullname:</text><text x="13.026" y="1.67" class="f">alexaimephotography</text></symbol><symbol id="47"><text x="1.002" y="1.67" class="f">┣╸image:</text><text x="10.02" y="1.67" class="f">https://s.pinimg.com/images/user/default_280.png</text></symbol><symbol id="48"><text x="1.002" y="1.67" class="f">┣╸board_count:</text><text x="16.032" y="1.67" class="f">3</text></symbol><symbol id="49"><text x="1.002" y="1.67" class="f">┣╸pin_count:</text><text x="14.028" y="1.67" class="f">4</text></symbol><symbol id="50"><text x="1.002" y="1.67" class="f">┣╸country:</text><text x="12.024" y="1.67" class="f">FR</text></symbol><symbol id="51"><text x="1.002" y="1.67" class="f">┣╸follower_count:</text><text x="19.038" y="1.67" class="f">0</text></symbol><symbol id="52"><text x="1.002" y="1.67" class="f">┣╸following_count:</text><text x="20.04" y="1.67" class="f">1</text></symbol><symbol id="53"><text x="1.002" y="1.67" class="f">┣╸is_website_verified:</text><text x="24.048" y="1.67" class="f">False</text></symbol><symbol id="54"><text x="1.002" y="1.67" class="f">┣╸is_indexed:</text><text x="15.03" y="1.67" class="f">True</text></symbol><symbol id="55"><text x="1.002" y="1.67" class="f">┣╸is_verified_merchant:</text><text x="25.05" y="1.67" class="f">False</text></symbol><symbol id="56"><text x="1.002" y="1.67" class="f">┗╸locale:</text><text x="11.022" y="1.67" class="f">fr</text></symbol><symbol id="57"><text y="1.67" class="i">[</text><text x="1.002" y="1.67" class="g">+</text><text x="2.004" y="1.67" class="i">]</text><text x="4.008" y="1.67" class="g">Reddit:</text><text x="12.024" y="1.67" class="f">https://www.reddit.com/user/alexaimephotography</text></symbol><symbol id="58"><text x="1.002" y="1.67" class="f">┣╸reddit_id:</text><text x="14.028" y="1.67" class="f">t5_1nytpy</text></symbol><symbol id="59"><text x="1.002" y="1.67" class="f">┣╸reddit_username:</text><text x="20.04" y="1.67" class="f">alexaimephotography</text></symbol><symbol id="60"><text x="1.002" y="1.67" class="f">┣╸display_name:</text><text x="17.034" y="1.67" class="f">alexaimephotography</text></symbol><symbol id="61"><text x="1.002" y="1.67" class="f">┣╸is_employee:</text><text x="16.032" y="1.67" class="f">False</text></symbol><symbol id="62"><text x="1.002" y="1.67" class="f">┣╸is_nsfw:</text><text x="12.024" y="1.67" class="f">False</text></symbol><symbol id="63"><text x="1.002" y="1.67" class="f">┣╸is_mod:</text><text x="11.022" y="1.67" class="f">True</text></symbol><symbol id="64"><text x="1.002" y="1.67" class="f">┣╸is_following:</text><text x="17.034" y="1.67" class="f">True</text></symbol><symbol id="65"><text x="1.002" y="1.67" class="f">┣╸has_user_profile:</text><text x="21.042" y="1.67" class="f">True</text></symbol><symbol id="66"><text x="1.002" y="1.67" class="f">┣╸hide_from_robots:</text><text x="21.042" y="1.67" class="f">False</text></symbol><symbol id="67"><text x="1.002" y="1.67" class="f">┣╸created_utc:</text><text x="16.032" y="1.67" class="f">1562750403</text></symbol><symbol id="68"><text x="1.002" y="1.67" class="f">┣╸total_karma:</text><text x="16.032" y="1.67" class="f">43140</text></symbol><symbol id="69"><text x="1.002" y="1.67" class="f">┗╸post_karma:</text><text x="15.03" y="1.67" class="f">42586</text></symbol><symbol id="70"><text y="1.67" class="i">[</text><text x="1.002" y="1.67" class="g">+</text><text x="2.004" y="1.67" class="i">]</text><text x="4.008" y="1.67" class="g">Tumblr:</text><text x="12.024" y="1.67" class="f">https://alexaimephotography.tumblr.com/</text></symbol><symbol id="71"><text y="1.67" class="i">[</text><text x="1.002" y="1.67" class="g">+</text><text x="2.004" y="1.67" class="i">]</text><text x="4.008" y="1.67" class="g">VK:</text><text x="8.016" y="1.67" class="f">https://vk.com/alexaimephotography</text></symbol><symbol id="72"><text y="1.67" class="i">[</text><text x="1.002" y="1.67" class="g">+</text><text x="2.004" y="1.67" class="i">]</text><text x="4.008" y="1.67" class="g">Vimeo:</text><text x="11.022" y="1.67" class="f">https://vimeo.com/alexaimephotography</text></symbol><symbol id="73"><text x="1.002" y="1.67" class="f">┣╸uid:</text><text x="8.016" y="1.67" class="f">75857717</text></symbol><symbol id="74"><text x="1.002" y="1.67" class="f">┣╸name:</text><text x="9.018" y="1.67" class="f">AlexAimePhotography</text></symbol><symbol id="75"><text x="1.002" y="1.67" class="f">┣╸location:</text><text x="13.026" y="1.67" class="f">France</text></symbol><symbol id="76"><text x="1.002" y="1.67" class="f">┣╸created_at:</text><text x="15.03" y="1.67" class="f">2017-12-06</text><text x="26.052" y="1.67" class="f">06:49:28</text></symbol><symbol id="77"><text x="1.002" y="1.67" class="f">┣╸is_staff:</text><text x="13.026" y="1.67" class="f">False</text></symbol><symbol id="78"><text x="3.006" y="1.67" class="f">┣╸</text><text x="6.012" y="1.67" class="f">https://500px.com/alexaimephotography</text></symbol><symbol id="79"><text x="3.006" y="1.67" class="f">┣╸</text><text x="6.012" y="1.67" class="f">https://www.flickr.com/photos/photoambiance/</text></symbol><symbol id="80"><text x="3.006" y="1.67" class="f">┣╸</text><text x="6.012" y="1.67" class="f">https://www.instagram.com/alexaimephotography/</text></symbol><symbol id="81"><text x="3.006" y="1.67" class="f">┣╸</text><text x="6.012" y="1.67" class="f">https://www.youtube.com/channel/UC4NiYV3Yqih2WHcwKg4uPuQ</text></symbol><symbol id="82"><text x="3.006" y="1.67" class="f">┗╸</text><text x="6.012" y="1.67" class="f">https://flii.by/alexaimephotography/</text></symbol><symbol id="83"><text y="1.67" class="i">[</text><text x="1.002" y="1.67" class="g">+</text><text x="2.004" y="1.67" class="i">]</text><text x="4.008" y="1.67" class="g">We</text><text x="7.014" y="1.67" class="g">Heart</text><text x="13.026" y="1.67" class="g">It:</text><text x="17.034" y="1.67" class="f">https://weheartit.com/alexaimephotography</text></symbol><symbol id="84"><text y="1.67" class="g">[</text><text x="1.002" y="1.67" class="h">*</text><text x="2.004" y="1.67" class="g">]</text><text x="4.008" y="1.67" class="g">Checking</text><text x="13.026" y="1.67" class="g">username</text><text x="22.044" y="1.67" class="i">Alexaimephotogr</text><text x="38.076" y="1.67" class="g">on:</text></symbol><symbol id="85"><text y="1.67" class="i">[</text><text x="1.002" y="1.67" class="g">+</text><text x="2.004" y="1.67" class="i">]</text><text x="4.008" y="1.67" class="g">Twitter:</text><text x="13.026" y="1.67" class="f">https://twitter.com/Alexaimephotogr</text></symbol><symbol id="a"><path fill="transparent" d="M0 0h100v51H0z"/></symbol></defs><path class="a" d="M0 0h100v108.55H0z"/><g style="animation-duration:10.871055000000002s;animation-iteration-count:infinite;animation-name:k;animation-timing-function:steps(1,end)"><svg width="2500"><svg><use xlink:href="#a"/></svg><svg x="100"><use xlink:href="#a"/><use xlink:href="#1"/></svg><svg x="200"><use xlink:href="#a"/><text y="1.67" class="f">$</text><path fill="#b9c0cb" d="M2.004 0h73v2.171h-73z"/><text x="2.004" y="1.67" style="white-space:pre" fill="#282d35">python3 maigret --ids --print-found --skip-errors alexaimephotographycars</text></svg><svg x="300"><use xlink:href="#a"/><use xlink:href="#2"/></svg><svg x="400"><use xlink:href="#a"/><use xlink:href="#2"/><use xlink:href="#3" y="2.171"/></svg><svg x="500"><use xlink:href="#a"/><use xlink:href="#2"/><use xlink:href="#3" y="2.171"/><use xlink:href="#4" y="4.342"/><use xlink:href="#5" y="6.513"/><use xlink:href="#6" y="8.684"/><use xlink:href="#7" y="10.855"/><use xlink:href="#8" y="13.026"/><use xlink:href="#9" y="15.197"/><use xlink:href="#10" y="17.368"/><use xlink:href="#11" y="19.539"/><use xlink:href="#12" y="21.71"/></svg><svg x="600"><use xlink:href="#a"/><use xlink:href="#2"/><use xlink:href="#3" y="2.171"/><use xlink:href="#4" y="4.342"/><use xlink:href="#5" y="6.513"/><use xlink:href="#6" y="8.684"/><use xlink:href="#7" y="10.855"/><use xlink:href="#8" y="13.026"/><use xlink:href="#9" y="15.197"/><use xlink:href="#10" y="17.368"/><use xlink:href="#11" y="19.539"/><use xlink:href="#12" y="21.71"/><use xlink:href="#13" y="23.881"/></svg><svg x="700"><use xlink:href="#a"/><use xlink:href="#2"/><use xlink:href="#3" y="2.171"/><use xlink:href="#4" y="4.342"/><use xlink:href="#5" y="6.513"/><use xlink:href="#6" y="8.684"/><use xlink:href="#7" y="10.855"/><use xlink:href="#8" y="13.026"/><use xlink:href="#9" y="15.197"/><use xlink:href="#10" y="17.368"/><use xlink:href="#11" y="19.539"/><use xlink:href="#12" y="21.71"/><use xlink:href="#13" y="23.881"/><use xlink:href="#14" y="26.052"/><use xlink:href="#15" y="28.223"/><use xlink:href="#16" y="30.394"/><use xlink:href="#17" y="32.565"/><use xlink:href="#18" y="34.736"/><use xlink:href="#19" y="36.907"/><use xlink:href="#20" y="39.078"/><use xlink:href="#21" y="41.249"/><use xlink:href="#22" y="43.42"/></svg><svg x="800"><use xlink:href="#a"/><use xlink:href="#2"/><use xlink:href="#3" y="2.171"/><use xlink:href="#4" y="4.342"/><use xlink:href="#5" y="6.513"/><use xlink:href="#6" y="8.684"/><use xlink:href="#7" y="10.855"/><use xlink:href="#8" y="13.026"/><use xlink:href="#9" y="15.197"/><use xlink:href="#10" y="17.368"/><use xlink:href="#11" y="19.539"/><use xlink:href="#12" y="21.71"/><use xlink:href="#13" y="23.881"/><use xlink:href="#14" y="26.052"/><use xlink:href="#15" y="28.223"/><use xlink:href="#16" y="30.394"/><use xlink:href="#17" y="32.565"/><use xlink:href="#18" y="34.736"/><use xlink:href="#19" y="36.907"/><use xlink:href="#20" y="39.078"/><use xlink:href="#21" y="41.249"/><use xlink:href="#22" y="43.42"/><use xlink:href="#23" y="45.591"/><use xlink:href="#24" y="47.762"/><use xlink:href="#25" y="49.933"/><use xlink:href="#26" y="52.104"/><use xlink:href="#27" y="54.275"/><use xlink:href="#28" y="56.446"/><use xlink:href="#29" y="58.617"/><use xlink:href="#30" y="60.788"/><use xlink:href="#31" y="62.959"/></svg><svg x="900"><use xlink:href="#a"/><use xlink:href="#2"/><use xlink:href="#3" y="2.171"/><use xlink:href="#4" y="4.342"/><use xlink:href="#5" y="6.513"/><use xlink:href="#6" y="8.684"/><use xlink:href="#7" y="10.855"/><use xlink:href="#8" y="13.026"/><use xlink:href="#9" y="15.197"/><use xlink:href="#10" y="17.368"/><use xlink:href="#11" y="19.539"/><use xlink:href="#12" y="21.71"/><use xlink:href="#13" y="23.881"/><use xlink:href="#14" y="26.052"/><use xlink:href="#15" y="28.223"/><use xlink:href="#16" y="30.394"/><use xlink:href="#17" y="32.565"/><use xlink:href="#18" y="34.736"/><use xlink:href="#19" y="36.907"/><use xlink:href="#20" y="39.078"/><use xlink:href="#21" y="41.249"/><use xlink:href="#22" y="43.42"/><use xlink:href="#23" y="45.591"/><use xlink:href="#24" y="47.762"/><use xlink:href="#25" y="49.933"/><use xlink:href="#26" y="52.104"/><use xlink:href="#27" y="54.275"/><use xlink:href="#28" y="56.446"/><use xlink:href="#29" y="58.617"/><use xlink:href="#30" y="60.788"/><use xlink:href="#31" y="62.959"/><use xlink:href="#32" y="65.13"/></svg><svg x="1000"><use xlink:href="#a"/><use xlink:href="#2"/><use xlink:href="#3" y="2.171"/><use xlink:href="#4" y="4.342"/><use xlink:href="#5" y="6.513"/><use xlink:href="#6" y="8.684"/><use xlink:href="#7" y="10.855"/><use xlink:href="#8" y="13.026"/><use xlink:href="#9" y="15.197"/><use xlink:href="#10" y="17.368"/><use xlink:href="#11" y="19.539"/><use xlink:href="#12" y="21.71"/><use xlink:href="#13" y="23.881"/><use xlink:href="#14" y="26.052"/><use xlink:href="#15" y="28.223"/><use xlink:href="#16" y="30.394"/><use xlink:href="#17" y="32.565"/><use xlink:href="#18" y="34.736"/><use xlink:href="#19" y="36.907"/><use xlink:href="#20" y="39.078"/><use xlink:href="#21" y="41.249"/><use xlink:href="#22" y="43.42"/><use xlink:href="#23" y="45.591"/><use xlink:href="#24" y="47.762"/><use xlink:href="#25" y="49.933"/><use xlink:href="#26" y="52.104"/><use xlink:href="#27" y="54.275"/><use xlink:href="#28" y="56.446"/><use xlink:href="#29" y="58.617"/><use xlink:href="#30" y="60.788"/><use xlink:href="#31" y="62.959"/><use xlink:href="#32" y="65.13"/><use xlink:href="#33" y="67.301"/></svg><svg x="1100"><use xlink:href="#a"/><use xlink:href="#2"/><use xlink:href="#3" y="2.171"/><use xlink:href="#4" y="4.342"/><use xlink:href="#5" y="6.513"/><use xlink:href="#6" y="8.684"/><use xlink:href="#7" y="10.855"/><use xlink:href="#8" y="13.026"/><use xlink:href="#9" y="15.197"/><use xlink:href="#10" y="17.368"/><use xlink:href="#11" y="19.539"/><use xlink:href="#12" y="21.71"/><use xlink:href="#13" y="23.881"/><use xlink:href="#14" y="26.052"/><use xlink:href="#15" y="28.223"/><use xlink:href="#16" y="30.394"/><use xlink:href="#17" y="32.565"/><use xlink:href="#18" y="34.736"/><use xlink:href="#19" y="36.907"/><use xlink:href="#20" y="39.078"/><use xlink:href="#21" y="41.249"/><use xlink:href="#22" y="43.42"/><use xlink:href="#23" y="45.591"/><use xlink:href="#24" y="47.762"/><use xlink:href="#25" y="49.933"/><use xlink:href="#26" y="52.104"/><use xlink:href="#27" y="54.275"/><use xlink:href="#28" y="56.446"/><use xlink:href="#29" y="58.617"/><use xlink:href="#30" y="60.788"/><use xlink:href="#31" y="62.959"/><use xlink:href="#32" y="65.13"/><use xlink:href="#33" y="67.301"/><use xlink:href="#34" y="69.472"/><use xlink:href="#35" y="71.643"/><use xlink:href="#36" y="73.814"/><use xlink:href="#37" y="75.985"/><use xlink:href="#38" y="78.156"/><use xlink:href="#39" y="80.327"/><use xlink:href="#40" y="82.498"/><use xlink:href="#41" y="84.669"/><use xlink:href="#42" y="86.84"/></svg><svg x="1200"><use xlink:href="#a"/><use xlink:href="#2"/><use xlink:href="#3" y="2.171"/><use xlink:href="#4" y="4.342"/><use xlink:href="#5" y="6.513"/><use xlink:href="#6" y="8.684"/><use xlink:href="#7" y="10.855"/><use xlink:href="#8" y="13.026"/><use xlink:href="#9" y="15.197"/><use xlink:href="#10" y="17.368"/><use xlink:href="#11" y="19.539"/><use xlink:href="#12" y="21.71"/><use xlink:href="#13" y="23.881"/><use xlink:href="#14" y="26.052"/><use xlink:href="#15" y="28.223"/><use xlink:href="#16" y="30.394"/><use xlink:href="#17" y="32.565"/><use xlink:href="#18" y="34.736"/><use xlink:href="#19" y="36.907"/><use xlink:href="#20" y="39.078"/><use xlink:href="#21" y="41.249"/><use xlink:href="#22" y="43.42"/><use xlink:href="#23" y="45.591"/><use xlink:href="#24" y="47.762"/><use xlink:href="#25" y="49.933"/><use xlink:href="#26" y="52.104"/><use xlink:href="#27" y="54.275"/><use xlink:href="#28" y="56.446"/><use xlink:href="#29" y="58.617"/><use xlink:href="#30" y="60.788"/><use xlink:href="#31" y="62.959"/><use xlink:href="#32" y="65.13"/><use xlink:href="#33" y="67.301"/><use xlink:href="#34" y="69.472"/><use xlink:href="#35" y="71.643"/><use xlink:href="#36" y="73.814"/><use xlink:href="#37" y="75.985"/><use xlink:href="#38" y="78.156"/><use xlink:href="#39" y="80.327"/><use xlink:href="#40" y="82.498"/><use xlink:href="#41" y="84.669"/><use xlink:href="#42" y="86.84"/><use xlink:href="#43" y="89.011"/></svg><svg x="1300"><use xlink:href="#a"/><use xlink:href="#6"/><use xlink:href="#7" y="2.171"/><use xlink:href="#8" y="4.342"/><use xlink:href="#9" y="6.513"/><use xlink:href="#10" y="8.684"/><use xlink:href="#11" y="10.855"/><use xlink:href="#12" y="13.026"/><use xlink:href="#13" y="15.197"/><use xlink:href="#14" y="17.368"/><use xlink:href="#15" y="19.539"/><use xlink:href="#16" y="21.71"/><use xlink:href="#17" y="23.881"/><use xlink:href="#18" y="26.052"/><use xlink:href="#19" y="28.223"/><use xlink:href="#20" y="30.394"/><use xlink:href="#21" y="32.565"/><use xlink:href="#22" y="34.736"/><use xlink:href="#23" y="36.907"/><use xlink:href="#24" y="39.078"/><use xlink:href="#25" y="41.249"/><use xlink:href="#26" y="43.42"/><use xlink:href="#27" y="45.591"/><use xlink:href="#28" y="47.762"/><use xlink:href="#29" y="49.933"/><use xlink:href="#30" y="52.104"/><use xlink:href="#31" y="54.275"/><use xlink:href="#32" y="56.446"/><use xlink:href="#33" y="58.617"/><use xlink:href="#34" y="60.788"/><use xlink:href="#35" y="62.959"/><use xlink:href="#36" y="65.13"/><use xlink:href="#37" y="67.301"/><use xlink:href="#38" y="69.472"/><use xlink:href="#39" y="71.643"/><use xlink:href="#40" y="73.814"/><use xlink:href="#41" y="75.985"/><use xlink:href="#42" y="78.156"/><use xlink:href="#43" y="80.327"/><use xlink:href="#44" y="82.498"/><use xlink:href="#45" y="84.669"/><use xlink:href="#46" y="86.84"/><use xlink:href="#47" y="89.011"/><use xlink:href="#48" y="91.182"/><use xlink:href="#49" y="93.353"/><use xlink:href="#50" y="95.524"/><use xlink:href="#51" y="97.695"/><use xlink:href="#52" y="99.866"/><use xlink:href="#53" y="102.037"/><use xlink:href="#54" y="104.208"/><use xlink:href="#55" y="106.379"/><use xlink:href="#56" y="108.55"/></svg><svg x="1400"><use xlink:href="#a"/><use xlink:href="#7"/><use xlink:href="#8" y="2.171"/><use xlink:href="#9" y="4.342"/><use xlink:href="#10" y="6.513"/><use xlink:href="#11" y="8.684"/><use xlink:href="#12" y="10.855"/><use xlink:href="#13" y="13.026"/><use xlink:href="#14" y="15.197"/><use xlink:href="#15" y="17.368"/><use xlink:href="#16" y="19.539"/><use xlink:href="#17" y="21.71"/><use xlink:href="#18" y="23.881"/><use xlink:href="#19" y="26.052"/><use xlink:href="#20" y="28.223"/><use xlink:href="#21" y="30.394"/><use xlink:href="#22" y="32.565"/><use xlink:href="#23" y="34.736"/><use xlink:href="#24" y="36.907"/><use xlink:href="#25" y="39.078"/><use xlink:href="#26" y="41.249"/><use xlink:href="#27" y="43.42"/><use xlink:href="#28" y="45.591"/><use xlink:href="#29" y="47.762"/><use xlink:href="#30" y="49.933"/><use xlink:href="#31" y="52.104"/><use xlink:href="#32" y="54.275"/><use xlink:href="#33" y="56.446"/><use xlink:href="#34" y="58.617"/><use xlink:href="#35" y="60.788"/><use xlink:href="#36" y="62.959"/><use xlink:href="#37" y="65.13"/><use xlink:href="#38" y="67.301"/><use xlink:href="#39" y="69.472"/><use xlink:href="#40" y="71.643"/><use xlink:href="#41" y="73.814"/><use xlink:href="#42" y="75.985"/><use xlink:href="#43" y="78.156"/><use xlink:href="#44" y="80.327"/><use xlink:href="#45" y="82.498"/><use xlink:href="#46" y="84.669"/><use xlink:href="#47" y="86.84"/><use xlink:href="#48" y="89.011"/><use xlink:href="#49" y="91.182"/><use xlink:href="#50" y="93.353"/><use xlink:href="#51" y="95.524"/><use xlink:href="#52" y="97.695"/><use xlink:href="#53" y="99.866"/><use xlink:href="#54" y="102.037"/><use xlink:href="#55" y="104.208"/><use xlink:href="#56" y="106.379"/></svg><svg x="1500"><use xlink:href="#a"/><use xlink:href="#20"/><use xlink:href="#21" y="2.171"/><use xlink:href="#22" y="4.342"/><use xlink:href="#23" y="6.513"/><use xlink:href="#24" y="8.684"/><use xlink:href="#25" y="10.855"/><use xlink:href="#26" y="13.026"/><use xlink:href="#27" y="15.197"/><use xlink:href="#28" y="17.368"/><use xlink:href="#29" y="19.539"/><use xlink:href="#30" y="21.71"/><use xlink:href="#31" y="23.881"/><use xlink:href="#32" y="26.052"/><use xlink:href="#33" y="28.223"/><use xlink:href="#34" y="30.394"/><use xlink:href="#35" y="32.565"/><use xlink:href="#36" y="34.736"/><use xlink:href="#37" y="36.907"/><use xlink:href="#38" y="39.078"/><use xlink:href="#39" y="41.249"/><use xlink:href="#40" y="43.42"/><use xlink:href="#41" y="45.591"/><use xlink:href="#42" y="47.762"/><use xlink:href="#43" y="49.933"/><use xlink:href="#44" y="52.104"/><use xlink:href="#45" y="54.275"/><use xlink:href="#46" y="56.446"/><use xlink:href="#47" y="58.617"/><use xlink:href="#48" y="60.788"/><use xlink:href="#49" y="62.959"/><use xlink:href="#50" y="65.13"/><use xlink:href="#51" y="67.301"/><use xlink:href="#52" y="69.472"/><use xlink:href="#53" y="71.643"/><use xlink:href="#54" y="73.814"/><use xlink:href="#55" y="75.985"/><use xlink:href="#56" y="78.156"/><use xlink:href="#57" y="80.327"/><use xlink:href="#58" y="82.498"/><use xlink:href="#59" y="84.669"/><use xlink:href="#60" y="86.84"/><use xlink:href="#61" y="89.011"/><use xlink:href="#62" y="91.182"/><use xlink:href="#63" y="93.353"/><use xlink:href="#64" y="95.524"/><use xlink:href="#65" y="97.695"/><use xlink:href="#66" y="99.866"/><use xlink:href="#67" y="102.037"/><use xlink:href="#68" y="104.208"/><use xlink:href="#69" y="106.379"/></svg><svg x="1600"><use xlink:href="#a"/><use xlink:href="#21"/><use xlink:href="#22" y="2.171"/><use xlink:href="#23" y="4.342"/><use xlink:href="#24" y="6.513"/><use xlink:href="#25" y="8.684"/><use xlink:href="#26" y="10.855"/><use xlink:href="#27" y="13.026"/><use xlink:href="#28" y="15.197"/><use xlink:href="#29" y="17.368"/><use xlink:href="#30" y="19.539"/><use xlink:href="#31" y="21.71"/><use xlink:href="#32" y="23.881"/><use xlink:href="#33" y="26.052"/><use xlink:href="#34" y="28.223"/><use xlink:href="#35" y="30.394"/><use xlink:href="#36" y="32.565"/><use xlink:href="#37" y="34.736"/><use xlink:href="#38" y="36.907"/><use xlink:href="#39" y="39.078"/><use xlink:href="#40" y="41.249"/><use xlink:href="#41" y="43.42"/><use xlink:href="#42" y="45.591"/><use xlink:href="#43" y="47.762"/><use xlink:href="#44" y="49.933"/><use xlink:href="#45" y="52.104"/><use xlink:href="#46" y="54.275"/><use xlink:href="#47" y="56.446"/><use xlink:href="#48" y="58.617"/><use xlink:href="#49" y="60.788"/><use xlink:href="#50" y="62.959"/><use xlink:href="#51" y="65.13"/><use xlink:href="#52" y="67.301"/><use xlink:href="#53" y="69.472"/><use xlink:href="#54" y="71.643"/><use xlink:href="#55" y="73.814"/><use xlink:href="#56" y="75.985"/><use xlink:href="#57" y="78.156"/><use xlink:href="#58" y="80.327"/><use xlink:href="#59" y="82.498"/><use xlink:href="#60" y="84.669"/><use xlink:href="#61" y="86.84"/><use xlink:href="#62" y="89.011"/><use xlink:href="#63" y="91.182"/><use xlink:href="#64" y="93.353"/><use xlink:href="#65" y="95.524"/><use xlink:href="#66" y="97.695"/><use xlink:href="#67" y="99.866"/><use xlink:href="#68" y="102.037"/><use xlink:href="#69" y="104.208"/><use xlink:href="#70" y="106.379"/></svg><svg x="1700"><use xlink:href="#a"/><use xlink:href="#22"/><use xlink:href="#23" y="2.171"/><use xlink:href="#24" y="4.342"/><use xlink:href="#25" y="6.513"/><use xlink:href="#26" y="8.684"/><use xlink:href="#27" y="10.855"/><use xlink:href="#28" y="13.026"/><use xlink:href="#29" y="15.197"/><use xlink:href="#30" y="17.368"/><use xlink:href="#31" y="19.539"/><use xlink:href="#32" y="21.71"/><use xlink:href="#33" y="23.881"/><use xlink:href="#34" y="26.052"/><use xlink:href="#35" y="28.223"/><use xlink:href="#36" y="30.394"/><use xlink:href="#37" y="32.565"/><use xlink:href="#38" y="34.736"/><use xlink:href="#39" y="36.907"/><use xlink:href="#40" y="39.078"/><use xlink:href="#41" y="41.249"/><use xlink:href="#42" y="43.42"/><use xlink:href="#43" y="45.591"/><use xlink:href="#44" y="47.762"/><use xlink:href="#45" y="49.933"/><use xlink:href="#46" y="52.104"/><use xlink:href="#47" y="54.275"/><use xlink:href="#48" y="56.446"/><use xlink:href="#49" y="58.617"/><use xlink:href="#50" y="60.788"/><use xlink:href="#51" y="62.959"/><use xlink:href="#52" y="65.13"/><use xlink:href="#53" y="67.301"/><use xlink:href="#54" y="69.472"/><use xlink:href="#55" y="71.643"/><use xlink:href="#56" y="73.814"/><use xlink:href="#57" y="75.985"/><use xlink:href="#58" y="78.156"/><use xlink:href="#59" y="80.327"/><use xlink:href="#60" y="82.498"/><use xlink:href="#61" y="84.669"/><use xlink:href="#62" y="86.84"/><use xlink:href="#63" y="89.011"/><use xlink:href="#64" y="91.182"/><use xlink:href="#65" y="93.353"/><use xlink:href="#66" y="95.524"/><use xlink:href="#67" y="97.695"/><use xlink:href="#68" y="99.866"/><use xlink:href="#69" y="102.037"/><use xlink:href="#70" y="104.208"/><use xlink:href="#71" y="106.379"/></svg><svg x="1800"><use xlink:href="#a"/><use xlink:href="#35"/><use xlink:href="#36" y="2.171"/><use xlink:href="#37" y="4.342"/><use xlink:href="#38" y="6.513"/><use xlink:href="#39" y="8.684"/><use xlink:href="#40" y="10.855"/><use xlink:href="#41" y="13.026"/><use xlink:href="#42" y="15.197"/><use xlink:href="#43" y="17.368"/><use xlink:href="#44" y="19.539"/><use xlink:href="#45" y="21.71"/><use xlink:href="#46" y="23.881"/><use xlink:href="#47" y="26.052"/><use xlink:href="#48" y="28.223"/><use xlink:href="#49" y="30.394"/><use xlink:href="#50" y="32.565"/><use xlink:href="#51" y="34.736"/><use xlink:href="#52" y="36.907"/><use xlink:href="#53" y="39.078"/><use xlink:href="#54" y="41.249"/><use xlink:href="#55" y="43.42"/><use xlink:href="#56" y="45.591"/><use xlink:href="#57" y="47.762"/><use xlink:href="#58" y="49.933"/><use xlink:href="#59" y="52.104"/><use xlink:href="#60" y="54.275"/><use xlink:href="#61" y="56.446"/><use xlink:href="#62" y="58.617"/><use xlink:href="#63" y="60.788"/><use xlink:href="#64" y="62.959"/><use xlink:href="#65" y="65.13"/><use xlink:href="#66" y="67.301"/><use xlink:href="#67" y="69.472"/><use xlink:href="#68" y="71.643"/><use xlink:href="#69" y="73.814"/><use xlink:href="#70" y="75.985"/><use xlink:href="#71" y="78.156"/><use xlink:href="#72" y="80.327"/><use xlink:href="#73" y="82.498"/><use xlink:href="#74" y="84.669"/><use xlink:href="#35" y="86.84"/><use xlink:href="#75" y="89.011"/><use xlink:href="#76" y="91.182"/><use xlink:href="#77" y="93.353"/><use xlink:href="#21" y="95.524"/><use xlink:href="#78" y="97.695"/><use xlink:href="#79" y="99.866"/><use xlink:href="#80" y="102.037"/><use xlink:href="#81" y="104.208"/><use xlink:href="#82" y="106.379"/></svg><svg x="1900"><use xlink:href="#a"/><use xlink:href="#36"/><use xlink:href="#37" y="2.171"/><use xlink:href="#38" y="4.342"/><use xlink:href="#39" y="6.513"/><use xlink:href="#40" y="8.684"/><use xlink:href="#41" y="10.855"/><use xlink:href="#42" y="13.026"/><use xlink:href="#43" y="15.197"/><use xlink:href="#44" y="17.368"/><use xlink:href="#45" y="19.539"/><use xlink:href="#46" y="21.71"/><use xlink:href="#47" y="23.881"/><use xlink:href="#48" y="26.052"/><use xlink:href="#49" y="28.223"/><use xlink:href="#50" y="30.394"/><use xlink:href="#51" y="32.565"/><use xlink:href="#52" y="34.736"/><use xlink:href="#53" y="36.907"/><use xlink:href="#54" y="39.078"/><use xlink:href="#55" y="41.249"/><use xlink:href="#56" y="43.42"/><use xlink:href="#57" y="45.591"/><use xlink:href="#58" y="47.762"/><use xlink:href="#59" y="49.933"/><use xlink:href="#60" y="52.104"/><use xlink:href="#61" y="54.275"/><use xlink:href="#62" y="56.446"/><use xlink:href="#63" y="58.617"/><use xlink:href="#64" y="60.788"/><use xlink:href="#65" y="62.959"/><use xlink:href="#66" y="65.13"/><use xlink:href="#67" y="67.301"/><use xlink:href="#68" y="69.472"/><use xlink:href="#69" y="71.643"/><use xlink:href="#70" y="73.814"/><use xlink:href="#71" y="75.985"/><use xlink:href="#72" y="78.156"/><use xlink:href="#73" y="80.327"/><use xlink:href="#74" y="82.498"/><use xlink:href="#35" y="84.669"/><use xlink:href="#75" y="86.84"/><use xlink:href="#76" y="89.011"/><use xlink:href="#77" y="91.182"/><use xlink:href="#21" y="93.353"/><use xlink:href="#78" y="95.524"/><use xlink:href="#79" y="97.695"/><use xlink:href="#80" y="99.866"/><use xlink:href="#81" y="102.037"/><use xlink:href="#82" y="104.208"/><use xlink:href="#83" y="106.379"/></svg><svg x="2000"><use xlink:href="#a"/><use xlink:href="#37"/><use xlink:href="#38" y="2.171"/><use xlink:href="#39" y="4.342"/><use xlink:href="#40" y="6.513"/><use xlink:href="#41" y="8.684"/><use xlink:href="#42" y="10.855"/><use xlink:href="#43" y="13.026"/><use xlink:href="#44" y="15.197"/><use xlink:href="#45" y="17.368"/><use xlink:href="#46" y="19.539"/><use xlink:href="#47" y="21.71"/><use xlink:href="#48" y="23.881"/><use xlink:href="#49" y="26.052"/><use xlink:href="#50" y="28.223"/><use xlink:href="#51" y="30.394"/><use xlink:href="#52" y="32.565"/><use xlink:href="#53" y="34.736"/><use xlink:href="#54" y="36.907"/><use xlink:href="#55" y="39.078"/><use xlink:href="#56" y="41.249"/><use xlink:href="#57" y="43.42"/><use xlink:href="#58" y="45.591"/><use xlink:href="#59" y="47.762"/><use xlink:href="#60" y="49.933"/><use xlink:href="#61" y="52.104"/><use xlink:href="#62" y="54.275"/><use xlink:href="#63" y="56.446"/><use xlink:href="#64" y="58.617"/><use xlink:href="#65" y="60.788"/><use xlink:href="#66" y="62.959"/><use xlink:href="#67" y="65.13"/><use xlink:href="#68" y="67.301"/><use xlink:href="#69" y="69.472"/><use xlink:href="#70" y="71.643"/><use xlink:href="#71" y="73.814"/><use xlink:href="#72" y="75.985"/><use xlink:href="#73" y="78.156"/><use xlink:href="#74" y="80.327"/><use xlink:href="#35" y="82.498"/><use xlink:href="#75" y="84.669"/><use xlink:href="#76" y="86.84"/><use xlink:href="#77" y="89.011"/><use xlink:href="#21" y="91.182"/><use xlink:href="#78" y="93.353"/><use xlink:href="#79" y="95.524"/><use xlink:href="#80" y="97.695"/><use xlink:href="#81" y="99.866"/><use xlink:href="#82" y="102.037"/><use xlink:href="#83" y="104.208"/><use xlink:href="#84" y="106.379"/></svg><svg x="2100"><use xlink:href="#a"/><use xlink:href="#38"/><use xlink:href="#39" y="2.171"/><use xlink:href="#40" y="4.342"/><use xlink:href="#41" y="6.513"/><use xlink:href="#42" y="8.684"/><use xlink:href="#43" y="10.855"/><use xlink:href="#44" y="13.026"/><use xlink:href="#45" y="15.197"/><use xlink:href="#46" y="17.368"/><use xlink:href="#47" y="19.539"/><use xlink:href="#48" y="21.71"/><use xlink:href="#49" y="23.881"/><use xlink:href="#50" y="26.052"/><use xlink:href="#51" y="28.223"/><use xlink:href="#52" y="30.394"/><use xlink:href="#53" y="32.565"/><use xlink:href="#54" y="34.736"/><use xlink:href="#55" y="36.907"/><use xlink:href="#56" y="39.078"/><use xlink:href="#57" y="41.249"/><use xlink:href="#58" y="43.42"/><use xlink:href="#59" y="45.591"/><use xlink:href="#60" y="47.762"/><use xlink:href="#61" y="49.933"/><use xlink:href="#62" y="52.104"/><use xlink:href="#63" y="54.275"/><use xlink:href="#64" y="56.446"/><use xlink:href="#65" y="58.617"/><use xlink:href="#66" y="60.788"/><use xlink:href="#67" y="62.959"/><use xlink:href="#68" y="65.13"/><use xlink:href="#69" y="67.301"/><use xlink:href="#70" y="69.472"/><use xlink:href="#71" y="71.643"/><use xlink:href="#72" y="73.814"/><use xlink:href="#73" y="75.985"/><use xlink:href="#74" y="78.156"/><use xlink:href="#35" y="80.327"/><use xlink:href="#75" y="82.498"/><use xlink:href="#76" y="84.669"/><use xlink:href="#77" y="86.84"/><use xlink:href="#21" y="89.011"/><use xlink:href="#78" y="91.182"/><use xlink:href="#79" y="93.353"/><use xlink:href="#80" y="95.524"/><use xlink:href="#81" y="97.695"/><use xlink:href="#82" y="99.866"/><use xlink:href="#83" y="102.037"/><use xlink:href="#84" y="104.208"/><use xlink:href="#85" y="106.379"/></svg><svg x="2200"><use xlink:href="#a"/><use xlink:href="#38"/><use xlink:href="#39" y="2.171"/><use xlink:href="#40" y="4.342"/><use xlink:href="#41" y="6.513"/><use xlink:href="#42" y="8.684"/><use xlink:href="#43" y="10.855"/><use xlink:href="#44" y="13.026"/><use xlink:href="#45" y="15.197"/><use xlink:href="#46" y="17.368"/><use xlink:href="#47" y="19.539"/><use xlink:href="#48" y="21.71"/><use xlink:href="#49" y="23.881"/><use xlink:href="#50" y="26.052"/><use xlink:href="#51" y="28.223"/><use xlink:href="#52" y="30.394"/><use xlink:href="#53" y="32.565"/><use xlink:href="#54" y="34.736"/><use xlink:href="#55" y="36.907"/><use xlink:href="#56" y="39.078"/><use xlink:href="#57" y="41.249"/><use xlink:href="#58" y="43.42"/><use xlink:href="#59" y="45.591"/><use xlink:href="#60" y="47.762"/><use xlink:href="#61" y="49.933"/><use xlink:href="#62" y="52.104"/><use xlink:href="#63" y="54.275"/><use xlink:href="#64" y="56.446"/><use xlink:href="#65" y="58.617"/><use xlink:href="#66" y="60.788"/><use xlink:href="#67" y="62.959"/><use xlink:href="#68" y="65.13"/><use xlink:href="#69" y="67.301"/><use xlink:href="#70" y="69.472"/><use xlink:href="#71" y="71.643"/><use xlink:href="#72" y="73.814"/><use xlink:href="#73" y="75.985"/><use xlink:href="#74" y="78.156"/><use xlink:href="#35" y="80.327"/><use xlink:href="#75" y="82.498"/><use xlink:href="#76" y="84.669"/><use xlink:href="#77" y="86.84"/><use xlink:href="#21" y="89.011"/><use xlink:href="#78" y="91.182"/><use xlink:href="#79" y="93.353"/><use xlink:href="#80" y="95.524"/><use xlink:href="#81" y="97.695"/><use xlink:href="#82" y="99.866"/><use xlink:href="#83" y="102.037"/><use xlink:href="#84" y="104.208"/><use xlink:href="#85" y="106.379"/></svg><svg x="2300"><use xlink:href="#a"/><use xlink:href="#38"/><use xlink:href="#39" y="2.171"/><use xlink:href="#40" y="4.342"/><use xlink:href="#41" y="6.513"/><use xlink:href="#42" y="8.684"/><use xlink:href="#43" y="10.855"/><use xlink:href="#44" y="13.026"/><use xlink:href="#45" y="15.197"/><use xlink:href="#46" y="17.368"/><use xlink:href="#47" y="19.539"/><use xlink:href="#48" y="21.71"/><use xlink:href="#49" y="23.881"/><use xlink:href="#50" y="26.052"/><use xlink:href="#51" y="28.223"/><use xlink:href="#52" y="30.394"/><use xlink:href="#53" y="32.565"/><use xlink:href="#54" y="34.736"/><use xlink:href="#55" y="36.907"/><use xlink:href="#56" y="39.078"/><use xlink:href="#57" y="41.249"/><use xlink:href="#58" y="43.42"/><use xlink:href="#59" y="45.591"/><use xlink:href="#60" y="47.762"/><use xlink:href="#61" y="49.933"/><use xlink:href="#62" y="52.104"/><use xlink:href="#63" y="54.275"/><use xlink:href="#64" y="56.446"/><use xlink:href="#65" y="58.617"/><use xlink:href="#66" y="60.788"/><use xlink:href="#67" y="62.959"/><use xlink:href="#68" y="65.13"/><use xlink:href="#69" y="67.301"/><use xlink:href="#70" y="69.472"/><use xlink:href="#71" y="71.643"/><use xlink:href="#72" y="73.814"/><use xlink:href="#73" y="75.985"/><use xlink:href="#74" y="78.156"/><use xlink:href="#35" y="80.327"/><use xlink:href="#75" y="82.498"/><use xlink:href="#76" y="84.669"/><use xlink:href="#77" y="86.84"/><use xlink:href="#21" y="89.011"/><use xlink:href="#78" y="91.182"/><use xlink:href="#79" y="93.353"/><use xlink:href="#80" y="95.524"/><use xlink:href="#81" y="97.695"/><use xlink:href="#82" y="99.866"/><use xlink:href="#83" y="102.037"/><use xlink:href="#84" y="104.208"/><use xlink:href="#85" y="106.379"/><use xlink:href="#1" y="108.55"/></svg><svg x="2400"><use xlink:href="#a"/><use xlink:href="#39"/><use xlink:href="#40" y="2.171"/><use xlink:href="#41" y="4.342"/><use xlink:href="#42" y="6.513"/><use xlink:href="#43" y="8.684"/><use xlink:href="#44" y="10.855"/><use xlink:href="#45" y="13.026"/><use xlink:href="#46" y="15.197"/><use xlink:href="#47" y="17.368"/><use xlink:href="#48" y="19.539"/><use xlink:href="#49" y="21.71"/><use xlink:href="#50" y="23.881"/><use xlink:href="#51" y="26.052"/><use xlink:href="#52" y="28.223"/><use xlink:href="#53" y="30.394"/><use xlink:href="#54" y="32.565"/><use xlink:href="#55" y="34.736"/><use xlink:href="#56" y="36.907"/><use xlink:href="#57" y="39.078"/><use xlink:href="#58" y="41.249"/><use xlink:href="#59" y="43.42"/><use xlink:href="#60" y="45.591"/><use xlink:href="#61" y="47.762"/><use xlink:href="#62" y="49.933"/><use xlink:href="#63" y="52.104"/><use xlink:href="#64" y="54.275"/><use xlink:href="#65" y="56.446"/><use xlink:href="#66" y="58.617"/><use xlink:href="#67" y="60.788"/><use xlink:href="#68" y="62.959"/><use xlink:href="#69" y="65.13"/><use xlink:href="#70" y="67.301"/><use xlink:href="#71" y="69.472"/><use xlink:href="#72" y="71.643"/><use xlink:href="#73" y="73.814"/><use xlink:href="#74" y="75.985"/><use xlink:href="#35" y="78.156"/><use xlink:href="#75" y="80.327"/><use xlink:href="#76" y="82.498"/><use xlink:href="#77" y="84.669"/><use xlink:href="#21" y="86.84"/><use xlink:href="#78" y="89.011"/><use xlink:href="#79" y="91.182"/><use xlink:href="#80" y="93.353"/><use xlink:href="#81" y="95.524"/><use xlink:href="#82" y="97.695"/><use xlink:href="#83" y="99.866"/><use xlink:href="#84" y="102.037"/><use xlink:href="#85" y="104.208"/><use xlink:href="#1" y="106.379"/></svg></svg></g></g></svg></svg>