<svg xmlns="http://www.w3.org/2000/svg" xmlns:xlink="http://www.w3.org/1999/xlink" width="1040" height="1145.5"><rect width="1040" height="1145.5" class="a" rx="5" ry="5"/><svg x="0%" y="0%"><circle cx="20" cy="20" r="6" fill="#ff5f58"/><circle cx="40" cy="20" r="6" fill="#ffbd2e"/><circle cx="60" cy="20" r="6" fill="#18c132"/></svg><svg xmlns="http://www.w3.org/2000/svg" xmlns:xlink="http://www.w3.org/1999/xlink" width="1000" height="1085.5" x="15" y="50" viewBox="0 0 100 108.55"><style>@keyframes k{0%{transform:translateX(0)}.8%{transform:translateX(-100px)}7.8%{transform:translateX(-200px)}8.9%{transform:translateX(-300px)}12.1%{transform:translateX(-400px)}21.3%{transform:translateX(-500px)}30.5%{transform:translateX(-600px)}39.7%{transform:translateX(-700px)}39.8%{transform:translateX(-900px)}40%{transform:translateX(-1000px)}40.3%{transform:translateX(-1100px)}49.5%{transform:translateX(-1200px)}49.6%{transform:translateX(-1400px)}58.8%{transform:translateX(-1500px)}59.1%{transform:translateX(-1800px)}59.2%{transform:translateX(-1900px)}68.4%{transform:translateX(-2000px)}77.6%{transform:translateX(-2100px)}86.8%{transform:translateX(-2200px)}90.8%{transform:translateX(-2300px)}}.a{fill:#282d35}.f{fill:#b9c0cb}.f,.g,.h,.i{white-space:pre}.g{fill:#a8cc8c}.g,.h,.i{font-weight:700}.h{fill:#dbab79}.i{fill:#b9bfca}</style><g font-family="Monaco,Consolas,Menlo,'Bitstream Vera Sans Mono','Powerline Symbols',monospace" font-size="1.67"><defs><symbol id="1"><text y="1.67" class="f">$</text></symbol><symbol id="2"><text y="1.67" class="f">$</text><text x="2.004" y="1.67" class="f">python3</text><text x="10.02" y="1.67" class="f">maigret</text><text x="18.036" y="1.67" class="f">--ids</text><text x="24.048" y="1.67" class="f">--print-found</text><text x="38.076" y="1.67" class="f">--skip-errors</text><text x="52.104" y="1.67" class="f">alexaimephotographycars</text></symbol><symbol id="3"><text y="1.67" class="g">[</text><text x="1.002" y="1.67" class="h">*</text><text x="2.004" y="1.67" class="g">]</text><text x="4.008" y="1.67" class="g">Checking</text><text x="13.026" y="1.67" class="g">username</text><text x="22.044" y="1.67" class="i">alexaimephotographycars</text><text x="46.092" y="1.67" class="g">on:</text></symbol><symbol id="4"><text y="1.67" class="i">[</text><text x="1.002" y="1.67" class="g">+</text><text x="2.004" y="1.67" class="i">]</text><text x="4.008" y="1.67" class="g">500px:</text><text x="11.022" y="1.67" class="f">https://500px.com/p/alexaimephotographycars</text></symbol><symbol id="5"><text x="1.002" y="1.67" class="f">┣╸uid:</text><text x="8.016" y="1.67" class="f">dXJpOm5vZGU6VXNlcjoyNjQwMzQxNQ==</text></symbol><symbol id="6"><text x="1.002" y="1.67" class="f">┣╸legacy_id:</text><text x="14.028" y="1.67" class="f">26403415</text></symbol><symbol id="7"><text x="1.002" y="1.67" class="f">┣╸username:</text><text x="13.026" y="1.67" class="f">alexaimephotographycars</text></symbol><symbol id="8"><text x="1.002" y="1.67" class="f">┣╸name:</text><text x="9.018" y="1.67" class="f">Alex</text><text x="14.028" y="1.67" class="f">Aimé</text></symbol><symbol id="9"><text x="1.002" y="1.67" class="f">┣╸website:</text><text x="12.024" y="1.67" class="f">www.flickr.com/photos/alexaimephotography/</text></symbol><symbol id="10"><text x="1.002" y="1.67" class="f">┣╸facebook_link:</text><text x="19.038" y="1.67" class="f">www.instagram.com/street.reality.photography/</text></symbol><symbol id="11"><text x="1.002" y="1.67" class="f">┣╸instagram_username:</text><text x="23.046" y="1.67" class="f">alexaimephotography</text></symbol><symbol id="12"><text x="1.002" y="1.67" class="f">┗╸twitter_username:</text><text x="21.042" y="1.67" class="f">Alexaimephotogr</text></symbol><symbol id="13"><text y="1.67" class="g">[</text><text x="1.002" y="1.67" class="h">*</text><text x="2.004" y="1.67" class="g">]</text><text x="4.008" y="1.67" class="g">Checking</text><text x="13.026" y="1.67" class="g">username</text><text x="22.044" y="1.67" class="i">alexaimephotography</text><text x="42.084" y="1.67" class="g">on:</text></symbol><symbol id="14"><text y="1.67" class="i">[</text><text x="1.002" y="1.67" class="g">+</text><text x="2.004" y="1.67" class="i">]</text><text x="4.008" y="1.67" class="g">DeviantART:</text><text x="16.032" y="1.67" class="f">https://alexaimephotography.deviantart.com</text></symbol><symbol id="15"><text x="1.002" y="1.67" class="f">┣╸country:</text><text x="12.024" y="1.67" class="f">France</text></symbol><symbol id="16"><text x="1.002" y="1.67" class="f">┣╸registered_for_seconds:</text><text x="27.054" y="1.67" class="f">55041733</text></symbol><symbol id="17"><text x="1.002" y="1.67" class="f">┣╸gender:</text><text x="11.022" y="1.67" class="f">male</text></symbol><symbol id="18"><text x="1.002" y="1.67" class="f">┣╸username:</text><text x="13.026" y="1.67" class="f">Alexaimephotography</text></symbol><symbol id="19"><text x="1.002" y="1.67" class="f">┣╸twitter_username:</text><text x="21.042" y="1.67" class="f">alexaimephotogr</text></symbol><symbol id="20"><text x="1.002" y="1.67" class="f">┣╸website:</text><text x="12.024" y="1.67" class="f">www.instagram.com/alexaimephotography/</text></symbol><symbol id="21"><text x="1.002" y="1.67" class="f">┗╸links:</text></symbol><symbol id="22"><text x="3.006" y="1.67" class="f">┗╸</text><text x="6.012" y="1.67" class="f">https://www.instagram.com/alexaimephotography/</text></symbol><symbol id="23"><text y="1.67" class="i">[</text><text x="1.002" y="1.67" class="g">+</text><text x="2.004" y="1.67" class="i">]</text><text x="4.008" y="1.67" class="g">EyeEm:</text><text x="11.022" y="1.67" class="f">https://www.eyeem.com/u/alexaimephotography</text></symbol><symbol id="24"><text x="1.002" y="1.67" class="f">┣╸eyeem_id:</text><text x="13.026" y="1.67" class="f">21974802</text></symbol><symbol id="25"><text x="1.002" y="1.67" class="f">┣╸eyeem_username:</text><text x="19.038" y="1.67" class="f">alexaimephotography</text></symbol><symbol id="26"><text x="1.002" y="1.67" class="f">┣╸fullname:</text><text x="13.026" y="1.67" class="f">Alex</text></symbol><symbol id="27"><text x="1.002" y="1.67" class="f">┣╸followers:</text><text x="14.028" y="1.67" class="f">10</text></symbol><symbol id="28"><text x="1.002" y="1.67" class="f">┣╸friends:</text><text x="12.024" y="1.67" class="f">2</text></symbol><symbol id="29"><text x="1.002" y="1.67" class="f">┣╸liked_photos:</text><text x="17.034" y="1.67" class="f">37</text></symbol><symbol id="30"><text x="1.002" y="1.67" class="f">┣╸photos:</text><text x="11.022" y="1.67" class="f">10</text></symbol><symbol id="31"><text x="1.002" y="1.67" class="f">┗╸facebook_uid:</text><text x="17.034" y="1.67" class="f">1534915183474093</text></symbol><symbol id="32"><text y="1.67" class="i">[</text><text x="1.002" y="1.67" class="g">+</text><text x="2.004" y="1.67" class="i">]</text><text x="4.008" y="1.67" class="g">Facebook:</text><text x="14.028" y="1.67" class="f">https://www.facebook.com/alexaimephotography</text></symbol><symbol id="33"><text y="1.67" class="i">[</text><text x="1.002" y="1.67" class="g">+</text><text x="2.004" y="1.67" class="i">]</text><text x="4.008" y="1.67" class="g">Gramho:</text><text x="12.024" y="1.67" class="f">https://gramho.com/explore-hashtag/alexaimephotography</text></symbol><symbol id="34"><text y="1.67" class="i">[</text><text x="1.002" y="1.67" class="g">+</text><text x="2.004" y="1.67" class="i">]</text><text x="4.008" y="1.67" class="g">Instagram:</text><text x="15.03" y="1.67" class="f">https://www.instagram.com/alexaimephotography</text></symbol><symbol id="35"><text x="1.002" y="1.67" class="f">┣╸username:</text><text x="13.026" y="1.67" class="f">alexaimephotography</text></symbol><symbol id="36"><text x="1.002" y="1.67" class="f">┣╸full_name:</text><text x="14.028" y="1.67" class="f">Alexaimephotography</text></symbol><symbol id="37"><text x="1.002" y="1.67" class="f">┣╸id:</text><text x="7.014" y="1.67" class="f">6828488620</text></symbol><symbol id="38"><text x="1.002" y="1.67" class="f">┣╸biography:</text><text x="14.028" y="1.67" class="f">🇮🇹</text><text x="19.038" y="1.67" class="f">🇲🇫</text><text x="24.048" y="1.67" class="f">🇩🇪</text></symbol><symbol id="39"><text y="1.67" class="f">Amateur</text><text x="8.016" y="1.67" class="f">photographer</text></symbol><symbol id="40"><text y="1.67" class="f">Follow</text><text x="7.014" y="1.67" class="f">me</text><text x="10.02" y="1.67" class="f">@street.reality.photography</text></symbol><symbol id="41"><text y="1.67" class="f">Sony</text><text x="5.01" y="1.67" class="f">A7ii</text></symbol><symbol id="42"><text x="1.002" y="1.67" class="f">┗╸external_url:</text><text x="17.034" y="1.67" class="f">https://www.flickr.com/photos/alexaimephotography2020/</text></symbol><symbol id="43"><text y="1.67" class="i">[</text><text x="1.002" y="1.67" class="g">+</text><text x="2.004" y="1.67" class="i">]</text><text x="4.008" y="1.67" class="g">Picuki:</text><text x="12.024" y="1.67" class="f">https://www.picuki.com/profile/alexaimephotography</text></symbol><symbol id="44"><text y="1.67" class="i">[</text><text x="1.002" y="1.67" class="g">+</text><text x="2.004" y="1.67" class="i">]</text><text x="4.008" y="1.67" class="g">Pinterest:</text><text x="15.03" y="1.67" class="f">https://www.pinterest.com/alexaimephotography/</text></symbol><symbol id="45"><text x="1.002" y="1.67" class="f">┣╸pinterest_username:</text><text x="23.046" y="1.67" class="f">alexaimephotography</text></symbol><symbol id="46"><text x="1.002" y="1.67" class="f">┣╸fullname:</text><text x="13.026" y="1.67" class="f">alexaimephotography</text></symbol><symbol id="47"><text x="1.002" y="1.67" class="f">┣╸image:</text><text x="10.02" y="1.67" class="f">https://s.pinimg.com/images/user/default_280.png</text></symbol><symbol id="48"><text x="1.002" y="1.67" class="f">┣╸board_count:</text><text x="16.032" y="1.67" class="f">3</text></symbol><symbol id="49"><text x="1.002" y="1.67" class="f">┣╸pin_count:</text><text x="14.028" y="1.67" class="f">4</text></symbol><symbol id="50"><text x="1.002" y="1.67" class="f">┣╸country:</text><text x="12.024" y="1.67" class="f">FR</text></symbol><symbol id="51"><text x="1.002" y="1.67" class="f">┣╸follower_count:</text><text x="19.038" y="1.67" class="f">0</text></symbol><symbol id="52"><text x="1.002" y="1.67" class="f">┣╸following_count:</text><text x="20.04" y="1.67" class="f">1</text></symbol><symbol id="53"><text x="1.002" y="1.67" class="f">┣╸is_website_verified:</text><text x="24.048" y="1.67" class="f">False</text></symbol><symbol id="54"><text x="1.002" y="1.67" class="f">┣╸is_indexed:</text><text x="15.03" y="1.67" class="f">True</text></symbol><symbol id="55"><text x="1.002" y="1.67" class="f">┣╸is_verified_merchant:</text><text x="25.05" y="1.67" class="f">False</text></symbol><symbol id="56"><text x="1.002" y="1.67" class="f">┗╸locale:</text><text x="11.022" y="1.67" class="f">fr</text></symbol><symbol id="57"><text y="1.67" class="i">[</text><text x="1.002" y="1.67" class="g">+</text><text x="2.004" y="1.67" class="i">]</text><text x="4.008" y="1.67" class="g">Reddit:</text><text x="12.024" y="1.67" class="f">https://www.reddit.com/user/alexaimephotography</text></symbol><symbol id="58"><text x="1.002" y="1.67" class="f">┣╸reddit_id:</text><text x="14.028" y="1.67" class="f">t5_1nytpy</text></symbol><symbol id="59"><text x="1.002" y="1.67" class="f">┣╸reddit_username:</text><text x="20.04" y="1.67" class="f">alexaimephotography</text></symbol><symbol id="60"><text x="1.002" y="1.67" class="f">┣╸display_name:</text><text x="17.034" y="1.67" class="f">alexaimephotography</text></symbol><symbol id="61"><text x="1.002" y="1.67" class="f">┣╸is_employee:</text><text x="16.032" y="1.67" class="f">False</text></symbol><symbol id="62"><text x="1.002" y="1.67" class="f">┣╸is_nsfw:</text><text x="12.024" y="1.67" class="f">False</text></symbol><symbol id="63"><text x="1.002" y="1.67" class="f">┣╸is_mod:</text><text x="11.022" y="1.67" class="f">True</text></symbol><symbol id="64"><text x="1.002" y="1.67" class="f">┣╸is_following:</text><text x="17.034" y="1.67" class="f">True</text></symbol><symbol id="65"><text x="1.002" y="1.67" class="f">┣╸has_user_profile:</text><text x="21.042" y="1.67" class="f">True</text></symbol><symbol id="66"><text x="1.002" y="1.67" class="f">┣╸hide_from_robots:</text><text x="21.042" y="1.67" class="f">False</text></symbol><symbol id="67"><text x="1.002" y="1.67" class="f">┣╸created_utc:</text><text x="16.032" y="1.67" class="f">1562750403</text></symbol><symbol id="68"><text x="1.002" y="1.67" class="f">┣╸total_karma:</text><text x="16.032" y="1.67" class="f">43140</text></symbol><symbol id="69"><text x="1.002" y="1.67" class="f">┗╸post_karma:</text><text x="15.03" y="1.67" class="f">42586</text></symbol><symbol id="70"><text y="1.67" class="i">[</text><text x="1.002" y="1.67" class="g">+</text><text x="2.004" y="1.67" class="i">]</text><text x="4.008" y="1.67" class="g">Tumblr:</text><text x="12.024" y="1.67" class="f">https://alexaimephotography.tumblr.com/</text></symbol><symbol id="71"><text y="1.67" class="i">[</text><text x="1.002" y="1.67" class="g">+</text><text x="2.004" y="1.67" class="i">]</text><text x="4.008" y="1.67" class="g">VK:</text><text x="8.016" y="1.67" class="f">https://vk.com/alexaimephotography</text></symbol><symbol id="72"><text y="1.67" class="i">[</text><text x="1.002" y="1.67" class="g">+</text><text x="2.004" y="1.67" class="i">]</text><text x="4.008" y="1.67" class="g">Vimeo:</text><text x="11.022" y="1.67" class="f">https://vimeo.com/alexaimephotography</text></symbol><symbol id="73"><text x="1.002" y="1.67" class="f">┣╸uid:</text><text x="8.016" y="1.67" class="f">75857717</text></symbol><symbol id="74"><text x="1.002" y="1.67" class="f">┣╸name:</text><text x="9.018" y="1.67" class="f">AlexAimePhotography</text></symbol><symbol id="75"><text x="1.002" y="1.67" class="f">┣╸location:</text><text x="13.026" y="1.67" class="f">France</text></symbol><symbol id="76"><text x="1.002" y="1.67" class="f">┣╸created_at:</text><text x="15.03" y="1.67" class="f">2017-12-06</text><text x="26.052" y="1.67" class="f">06:49:28</text></symbol><symbol id="77"><text x="1.002" y="1.67" class="f">┣╸is_staff:</text><text x="13.026" y="1.67" class="f">False</text></symbol><symbol id="78"><text x="3.006" y="1.67" class="f">┣╸</text><text x="6.012" y="1.67" class="f">https://500px.com/alexaimephotography</text></symbol><symbol id="79"><text x="3.006" y="1.67" class="f">┣╸</text><text x="6.012" y="1.67" class="f">https://www.flickr.com/photos/photoambiance/</text></symbol><symbol id="80"><text x="3.006" y="1.67" class="f">┣╸</text><text x="6.012" y="1.67" class="f">https://www.instagram.com/alexaimephotography/</text></symbol><symbol id="81"><text x="3.006" y="1.67" class="f">┣╸</text><text x="6.012" y="1.67" class="f">https://www.youtube.com/channel/UC4NiYV3Yqih2WHcwKg4uPuQ</text></symbol><symbol id="82"><text x="3.006" y="1.67" class="f">┗╸</text><text x="6.012" y="1.67" class="f">https://flii.by/alexaimephotography/</text></symbol><symbol id="83"><text y="1.67" class="i">[</text><text x="1.002" y="1.67" class="g">+</text><text x="2.004" y="1.67" class="i">]</text><text x="4.008" y="1.67" class="g">We</text><text x="7.014" y="1.67" class="g">Heart</text><text x="13.026" y="1.67" class="g">It:</text><text x="17.034" y="1.67" class="f">https://weheartit.com/alexaimephotography</text></symbol><symbol id="84"><text y="1.67" class="g">[</text><text x="1.002" y="1.67" class="h">*</text><text x="2.004" y="1.67" class="g">]</text><text x="4.008" y="1.67" class="g">Checking</text><text x="13.026" y="1.67" class="g">username</text><text x="22.044" y="1.67" class="i">Alexaimephotogr</text><text x="38.076" y="1.67" class="g">on:</text></symbol><symbol id="85"><text y="1.67" class="i">[</text><text x="1.002" y="1.67" class="g">+</text><text x="2.004" y="1.67" class="i">]</text><text x="4.008" y="1.67" class="g">Twitter:</text><text x="13.026" y="1.67" class="f">https://twitter.com/Alexaimephotogr</text></symbol><symbol id="a"><path fill="transparent" d="M0 0h100v51H0z"/></symbol></defs><path d="M0 0h100v108.55H0z" class="a"/><g style="animation-duration:10.871055000000002s;animation-iteration-count:infinite;animation-name:k;animation-timing-function:steps(1,end)"><svg width="2500"><svg><use xlink:href="#a"/></svg><svg x="100"><use xlink:href="#a"/><use xlink:href="#1"/></svg><svg x="200"><use xlink:href="#a"/><text y="1.67" class="f">$</text><path fill="#b9c0cb" d="M2.004 0h73v2.171h-73z"/><text x="2.004" y="1.67" fill="#282d35" style="white-space:pre">python3 maigret --ids --print-found --skip-errors alexaimephotographycars</text></svg><svg x="300"><use xlink:href="#a"/><use xlink:href="#2"/></svg><svg x="400"><use xlink:href="#a"/><use xlink:href="#2"/><use y="2.171" xlink:href="#3"/></svg><svg x="500"><use xlink:href="#a"/><use xlink:href="#2"/><use y="2.171" xlink:href="#3"/><use y="4.342" xlink:href="#4"/><use y="6.513" xlink:href="#5"/><use y="8.684" xlink:href="#6"/><use y="10.855" xlink:href="#7"/><use y="13.026" xlink:href="#8"/><use y="15.197" xlink:href="#9"/><use y="17.368" xlink:href="#10"/><use y="19.539" xlink:href="#11"/><use y="21.71" xlink:href="#12"/></svg><svg x="600"><use xlink:href="#a"/><use xlink:href="#2"/><use y="2.171" xlink:href="#3"/><use y="4.342" xlink:href="#4"/><use y="6.513" xlink:href="#5"/><use y="8.684" xlink:href="#6"/><use y="10.855" xlink:href="#7"/><use y="13.026" xlink:href="#8"/><use y="15.197" xlink:href="#9"/><use y="17.368" xlink:href="#10"/><use y="19.539" xlink:href="#11"/><use y="21.71" xlink:href="#12"/><use y="23.881" xlink:href="#13"/></svg><svg x="700"><use xlink:href="#a"/><use xlink:href="#2"/><use y="2.171" xlink:href="#3"/><use y="4.342" xlink:href="#4"/><use y="6.513" xlink:href="#5"/><use y="8.684" xlink:href="#6"/><use y="10.855" xlink:href="#7"/><use y="13.026" xlink:href="#8"/><use y="15.197" xlink:href="#9"/><use y="17.368" xlink:href="#10"/><use y="19.539" xlink:href="#11"/><use y="21.71" xlink:href="#12"/><use y="23.881" xlink:href="#13"/><use y="26.052" xlink:href="#14"/><use y="28.223" xlink:href="#15"/><use y="30.394" xlink:href="#16"/><use y="32.565" xlink:href="#17"/><use y="34.736" xlink:href="#18"/><use y="36.907" xlink:href="#19"/><use y="39.078" xlink:href="#20"/><use y="41.249" xlink:href="#21"/><use y="43.42" xlink:href="#22"/></svg><svg x="800"><use xlink:href="#a"/><use xlink:href="#2"/><use y="2.171" xlink:href="#3"/><use y="4.342" xlink:href="#4"/><use y="6.513" xlink:href="#5"/><use y="8.684" xlink:href="#6"/><use y="10.855" xlink:href="#7"/><use y="13.026" xlink:href="#8"/><use y="15.197" xlink:href="#9"/><use y="17.368" xlink:href="#10"/><use y="19.539" xlink:href="#11"/><use y="21.71" xlink:href="#12"/><use y="23.881" xlink:href="#13"/><use y="26.052" xlink:href="#14"/><use y="28.223" xlink:href="#15"/><use y="30.394" xlink:href="#16"/><use y="32.565" xlink:href="#17"/><use y="34.736" xlink:href="#18"/><use y="36.907" xlink:href="#19"/><use y="39.078" xlink:href="#20"/><use y="41.249" xlink:href="#21"/><use y="43.42" xlink:href="#22"/><use y="45.591" xlink:href="#23"/><use y="47.762" xlink:href="#24"/><use y="49.933" xlink:href="#25"/><use y="52.104" xlink:href="#26"/><use y="54.275" xlink:href="#27"/><use y="56.446" xlink:href="#28"/><use y="58.617" xlink:href="#29"/><use y="60.788" xlink:href="#30"/><use y="62.959" xlink:href="#31"/></svg><svg x="900"><use xlink:href="#a"/><use xlink:href="#2"/><use y="2.171" xlink:href="#3"/><use y="4.342" xlink:href="#4"/><use y="6.513" xlink:href="#5"/><use y="8.684" xlink:href="#6"/><use y="10.855" xlink:href="#7"/><use y="13.026" xlink:href="#8"/><use y="15.197" xlink:href="#9"/><use y="17.368" xlink:href="#10"/><use y="19.539" xlink:href="#11"/><use y="21.71" xlink:href="#12"/><use y="23.881" xlink:href="#13"/><use y="26.052" xlink:href="#14"/><use y="28.223" xlink:href="#15"/><use y="30.394" xlink:href="#16"/><use y="32.565" xlink:href="#17"/><use y="34.736" xlink:href="#18"/><use y="36.907" xlink:href="#19"/><use y="39.078" xlink:href="#20"/><use y="41.249" xlink:href="#21"/><use y="43.42" xlink:href="#22"/><use y="45.591" xlink:href="#23"/><use y="47.762" xlink:href="#24"/><use y="49.933" xlink:href="#25"/><use y="52.104" xlink:href="#26"/><use y="54.275" xlink:href="#27"/><use y="56.446" xlink:href="#28"/><use y="58.617" xlink:href="#29"/><use y="60.788" xlink:href="#30"/><use y="62.959" xlink:href="#31"/><use y="65.13" xlink:href="#32"/></svg><svg x="1000"><use xlink:href="#a"/><use xlink:href="#2"/><use y="2.171" xlink:href="#3"/><use y="4.342" xlink:href="#4"/><use y="6.513" xlink:href="#5"/><use y="8.684" xlink:href="#6"/><use y="10.855" xlink:href="#7"/><use y="13.026" xlink:href="#8"/><use y="15.197" xlink:href="#9"/><use y="17.368" xlink:href="#10"/><use y="19.539" xlink:href="#11"/><use y="21.71" xlink:href="#12"/><use y="23.881" xlink:href="#13"/><use y="26.052" xlink:href="#14"/><use y="28.223" xlink:href="#15"/><use y="30.394" xlink:href="#16"/><use y="32.565" xlink:href="#17"/><use y="34.736" xlink:href="#18"/><use y="36.907" xlink:href="#19"/><use y="39.078" xlink:href="#20"/><use y="41.249" xlink:href="#21"/><use y="43.42" xlink:href="#22"/><use y="45.591" xlink:href="#23"/><use y="47.762" xlink:href="#24"/><use y="49.933" xlink:href="#25"/><use y="52.104" xlink:href="#26"/><use y="54.275" xlink:href="#27"/><use y="56.446" xlink:href="#28"/><use y="58.617" xlink:href="#29"/><use y="60.788" xlink:href="#30"/><use y="62.959" xlink:href="#31"/><use y="65.13" xlink:href="#32"/><use y="67.301" xlink:href="#33"/></svg><svg x="1100"><use xlink:href="#a"/><use xlink:href="#2"/><use y="2.171" xlink:href="#3"/><use y="4.342" xlink:href="#4"/><use y="6.513" xlink:href="#5"/><use y="8.684" xlink:href="#6"/><use y="10.855" xlink:href="#7"/><use y="13.026" xlink:href="#8"/><use y="15.197" xlink:href="#9"/><use y="17.368" xlink:href="#10"/><use y="19.539" xlink:href="#11"/><use y="21.71" xlink:href="#12"/><use y="23.881" xlink:href="#13"/><use y="26.052" xlink:href="#14"/><use y="28.223" xlink:href="#15"/><use y="30.394" xlink:href="#16"/><use y="32.565" xlink:href="#17"/><use y="34.736" xlink:href="#18"/><use y="36.907" xlink:href="#19"/><use y="39.078" xlink:href="#20"/><use y="41.249" xlink:href="#21"/><use y="43.42" xlink:href="#22"/><use y="45.591" xlink:href="#23"/><use y="47.762" xlink:href="#24"/><use y="49.933" xlink:href="#25"/><use y="52.104" xlink:href="#26"/><use y="54.275" xlink:href="#27"/><use y="56.446" xlink:href="#28"/><use y="58.617" xlink:href="#29"/><use y="60.788" xlink:href="#30"/><use y="62.959" xlink:href="#31"/><use y="65.13" xlink:href="#32"/><use y="67.301" xlink:href="#33"/><use y="69.472" xlink:href="#34"/><use y="71.643" xlink:href="#35"/><use y="73.814" xlink:href="#36"/><use y="75.985" xlink:href="#37"/><use y="78.156" xlink:href="#38"/><use y="80.327" xlink:href="#39"/><use y="82.498" xlink:href="#40"/><use y="84.669" xlink:href="#41"/><use y="86.84" xlink:href="#42"/></svg><svg x="1200"><use xlink:href="#a"/><use xlink:href="#2"/><use y="2.171" xlink:href="#3"/><use y="4.342" xlink:href="#4"/><use y="6.513" xlink:href="#5"/><use y="8.684" xlink:href="#6"/><use y="10.855" xlink:href="#7"/><use y="13.026" xlink:href="#8"/><use y="15.197" xlink:href="#9"/><use y="17.368" xlink:href="#10"/><use y="19.539" xlink:href="#11"/><use y="21.71" xlink:href="#12"/><use y="23.881" xlink:href="#13"/><use y="26.052" xlink:href="#14"/><use y="28.223" xlink:href="#15"/><use y="30.394" xlink:href="#16"/><use y="32.565" xlink:href="#17"/><use y="34.736" xlink:href="#18"/><use y="36.907" xlink:href="#19"/><use y="39.078" xlink:href="#20"/><use y="41.249" xlink:href="#21"/><use y="43.42" xlink:href="#22"/><use y="45.591" xlink:href="#23"/><use y="47.762" xlink:href="#24"/><use y="49.933" xlink:href="#25"/><use y="52.104" xlink:href="#26"/><use y="54.275" xlink:href="#27"/><use y="56.446" xlink:href="#28"/><use y="58.617" xlink:href="#29"/><use y="60.788" xlink:href="#30"/><use y="62.959" xlink:href="#31"/><use y="65.13" xlink:href="#32"/><use y="67.301" xlink:href="#33"/><use y="69.472" xlink:href="#34"/><use y="71.643" xlink:href="#35"/><use y="73.814" xlink:href="#36"/><use y="75.985" xlink:href="#37"/><use y="78.156" xlink:href="#38"/><use y="80.327" xlink:href="#39"/><use y="82.498" xlink:href="#40"/><use y="84.669" xlink:href="#41"/><use y="86.84" xlink:href="#42"/><use y="89.011" xlink:href="#43"/></svg><svg x="1300"><use xlink:href="#a"/><use xlink:href="#6"/><use y="2.171" xlink:href="#7"/><use y="4.342" xlink:href="#8"/><use y="6.513" xlink:href="#9"/><use y="8.684" xlink:href="#10"/><use y="10.855" xlink:href="#11"/><use y="13.026" xlink:href="#12"/><use y="15.197" xlink:href="#13"/><use y="17.368" xlink:href="#14"/><use y="19.539" xlink:href="#15"/><use y="21.71" xlink:href="#16"/><use y="23.881" xlink:href="#17"/><use y="26.052" xlink:href="#18"/><use y="28.223" xlink:href="#19"/><use y="30.394" xlink:href="#20"/><use y="32.565" xlink:href="#21"/><use y="34.736" xlink:href="#22"/><use y="36.907" xlink:href="#23"/><use y="39.078" xlink:href="#24"/><use y="41.249" xlink:href="#25"/><use y="43.42" xlink:href="#26"/><use y="45.591" xlink:href="#27"/><use y="47.762" xlink:href="#28"/><use y="49.933" xlink:href="#29"/><use y="52.104" xlink:href="#30"/><use y="54.275" xlink:href="#31"/><use y="56.446" xlink:href="#32"/><use y="58.617" xlink:href="#33"/><use y="60.788" xlink:href="#34"/><use y="62.959" xlink:href="#35"/><use y="65.13" xlink:href="#36"/><use y="67.301" xlink:href="#37"/><use y="69.472" xlink:href="#38"/><use y="71.643" xlink:href="#39"/><use y="73.814" xlink:href="#40"/><use y="75.985" xlink:href="#41"/><use y="78.156" xlink:href="#42"/><use y="80.327" xlink:href="#43"/><use y="82.498" xlink:href="#44"/><use y="84.669" xlink:href="#45"/><use y="86.84" xlink:href="#46"/><use y="89.011" xlink:href="#47"/><use y="91.182" xlink:href="#48"/><use y="93.353" xlink:href="#49"/><use y="95.524" xlink:href="#50"/><use y="97.695" xlink:href="#51"/><use y="99.866" xlink:href="#52"/><use y="102.037" xlink:href="#53"/><use y="104.208" xlink:href="#54"/><use y="106.379" xlink:href="#55"/><use y="108.55" xlink:href="#56"/></svg><svg x="1400"><use xlink:href="#a"/><use xlink:href="#7"/><use y="2.171" xlink:href="#8"/><use y="4.342" xlink:href="#9"/><use y="6.513" xlink:href="#10"/><use y="8.684" xlink:href="#11"/><use y="10.855" xlink:href="#12"/><use y="13.026" xlink:href="#13"/><use y="15.197" xlink:href="#14"/><use y="17.368" xlink:href="#15"/><use y="19.539" xlink:href="#16"/><use y="21.71" xlink:href="#17"/><use y="23.881" xlink:href="#18"/><use y="26.052" xlink:href="#19"/><use y="28.223" xlink:href="#20"/><use y="30.394" xlink:href="#21"/><use y="32.565" xlink:href="#22"/><use y="34.736" xlink:href="#23"/><use y="36.907" xlink:href="#24"/><use y="39.078" xlink:href="#25"/><use y="41.249" xlink:href="#26"/><use y="43.42" xlink:href="#27"/><use y="45.591" xlink:href="#28"/><use y="47.762" xlink:href="#29"/><use y="49.933" xlink:href="#30"/><use y="52.104" xlink:href="#31"/><use y="54.275" xlink:href="#32"/><use y="56.446" xlink:href="#33"/><use y="58.617" xlink:href="#34"/><use y="60.788" xlink:href="#35"/><use y="62.959" xlink:href="#36"/><use y="65.13" xlink:href="#37"/><use y="67.301" xlink:href="#38"/><use y="69.472" xlink:href="#39"/><use y="71.643" xlink:href="#40"/><use y="73.814" xlink:href="#41"/><use y="75.985" xlink:href="#42"/><use y="78.156" xlink:href="#43"/><use y="80.327" xlink:href="#44"/><use y="82.498" xlink:href="#45"/><use y="84.669" xlink:href="#46"/><use y="86.84" xlink:href="#47"/><use y="89.011" xlink:href="#48"/><use y="91.182" xlink:href="#49"/><use y="93.353" xlink:href="#50"/><use y="95.524" xlink:href="#51"/><use y="97.695" xlink:href="#52"/><use y="99.866" xlink:href="#53"/><use y="102.037" xlink:href="#54"/><use y="104.208" xlink:href="#55"/><use y="106.379" xlink:href="#56"/></svg><svg x="1500"><use xlink:href="#a"/><use xlink:href="#20"/><use y="2.171" xlink:href="#21"/><use y="4.342" xlink:href="#22"/><use y="6.513" xlink:href="#23"/><use y="8.684" xlink:href="#24"/><use y="10.855" xlink:href="#25"/><use y="13.026" xlink:href="#26"/><use y="15.197" xlink:href="#27"/><use y="17.368" xlink:href="#28"/><use y="19.539" xlink:href="#29"/><use y="21.71" xlink:href="#30"/><use y="23.881" xlink:href="#31"/><use y="26.052" xlink:href="#32"/><use y="28.223" xlink:href="#33"/><use y="30.394" xlink:href="#34"/><use y="32.565" xlink:href="#35"/><use y="34.736" xlink:href="#36"/><use y="36.907" xlink:href="#37"/><use y="39.078" xlink:href="#38"/><use y="41.249" xlink:href="#39"/><use y="43.42" xlink:href="#40"/><use y="45.591" xlink:href="#41"/><use y="47.762" xlink:href="#42"/><use y="49.933" xlink:href="#43"/><use y="52.104" xlink:href="#44"/><use y="54.275" xlink:href="#45"/><use y="56.446" xlink:href="#46"/><use y="58.617" xlink:href="#47"/><use y="60.788" xlink:href="#48"/><use y="62.959" xlink:href="#49"/><use y="65.13" xlink:href="#50"/><use y="67.301" xlink:href="#51"/><use y="69.472" xlink:href="#52"/><use y="71.643" xlink:href="#53"/><use y="73.814" xlink:href="#54"/><use y="75.985" xlink:href="#55"/><use y="78.156" xlink:href="#56"/><use y="80.327" xlink:href="#57"/><use y="82.498" xlink:href="#58"/><use y="84.669" xlink:href="#59"/><use y="86.84" xlink:href="#60"/><use y="89.011" xlink:href="#61"/><use y="91.182" xlink:href="#62"/><use y="93.353" xlink:href="#63"/><use y="95.524" xlink:href="#64"/><use y="97.695" xlink:href="#65"/><use y="99.866" xlink:href="#66"/><use y="102.037" xlink:href="#67"/><use y="104.208" xlink:href="#68"/><use y="106.379" xlink:href="#69"/></svg><svg x="1600"><use xlink:href="#a"/><use xlink:href="#21"/><use y="2.171" xlink:href="#22"/><use y="4.342" xlink:href="#23"/><use y="6.513" xlink:href="#24"/><use y="8.684" xlink:href="#25"/><use y="10.855" xlink:href="#26"/><use y="13.026" xlink:href="#27"/><use y="15.197" xlink:href="#28"/><use y="17.368" xlink:href="#29"/><use y="19.539" xlink:href="#30"/><use y="21.71" xlink:href="#31"/><use y="23.881" xlink:href="#32"/><use y="26.052" xlink:href="#33"/><use y="28.223" xlink:href="#34"/><use y="30.394" xlink:href="#35"/><use y="32.565" xlink:href="#36"/><use y="34.736" xlink:href="#37"/><use y="36.907" xlink:href="#38"/><use y="39.078" xlink:href="#39"/><use y="41.249" xlink:href="#40"/><use y="43.42" xlink:href="#41"/><use y="45.591" xlink:href="#42"/><use y="47.762" xlink:href="#43"/><use y="49.933" xlink:href="#44"/><use y="52.104" xlink:href="#45"/><use y="54.275" xlink:href="#46"/><use y="56.446" xlink:href="#47"/><use y="58.617" xlink:href="#48"/><use y="60.788" xlink:href="#49"/><use y="62.959" xlink:href="#50"/><use y="65.13" xlink:href="#51"/><use y="67.301" xlink:href="#52"/><use y="69.472" xlink:href="#53"/><use y="71.643" xlink:href="#54"/><use y="73.814" xlink:href="#55"/><use y="75.985" xlink:href="#56"/><use y="78.156" xlink:href="#57"/><use y="80.327" xlink:href="#58"/><use y="82.498" xlink:href="#59"/><use y="84.669" xlink:href="#60"/><use y="86.84" xlink:href="#61"/><use y="89.011" xlink:href="#62"/><use y="91.182" xlink:href="#63"/><use y="93.353" xlink:href="#64"/><use y="95.524" xlink:href="#65"/><use y="97.695" xlink:href="#66"/><use y="99.866" xlink:href="#67"/><use y="102.037" xlink:href="#68"/><use y="104.208" xlink:href="#69"/><use y="106.379" xlink:href="#70"/></svg><svg x="1700"><use xlink:href="#a"/><use xlink:href="#22"/><use y="2.171" xlink:href="#23"/><use y="4.342" xlink:href="#24"/><use y="6.513" xlink:href="#25"/><use y="8.684" xlink:href="#26"/><use y="10.855" xlink:href="#27"/><use y="13.026" xlink:href="#28"/><use y="15.197" xlink:href="#29"/><use y="17.368" xlink:href="#30"/><use y="19.539" xlink:href="#31"/><use y="21.71" xlink:href="#32"/><use y="23.881" xlink:href="#33"/><use y="26.052" xlink:href="#34"/><use y="28.223" xlink:href="#35"/><use y="30.394" xlink:href="#36"/><use y="32.565" xlink:href="#37"/><use y="34.736" xlink:href="#38"/><use y="36.907" xlink:href="#39"/><use y="39.078" xlink:href="#40"/><use y="41.249" xlink:href="#41"/><use y="43.42" xlink:href="#42"/><use y="45.591" xlink:href="#43"/><use y="47.762" xlink:href="#44"/><use y="49.933" xlink:href="#45"/><use y="52.104" xlink:href="#46"/><use y="54.275" xlink:href="#47"/><use y="56.446" xlink:href="#48"/><use y="58.617" xlink:href="#49"/><use y="60.788" xlink:href="#50"/><use y="62.959" xlink:href="#51"/><use y="65.13" xlink:href="#52"/><use y="67.301" xlink:href="#53"/><use y="69.472" xlink:href="#54"/><use y="71.643" xlink:href="#55"/><use y="73.814" xlink:href="#56"/><use y="75.985" xlink:href="#57"/><use y="78.156" xlink:href="#58"/><use y="80.327" xlink:href="#59"/><use y="82.498" xlink:href="#60"/><use y="84.669" xlink:href="#61"/><use y="86.84" xlink:href="#62"/><use y="89.011" xlink:href="#63"/><use y="91.182" xlink:href="#64"/><use y="93.353" xlink:href="#65"/><use y="95.524" xlink:href="#66"/><use y="97.695" xlink:href="#67"/><use y="99.866" xlink:href="#68"/><use y="102.037" xlink:href="#69"/><use y="104.208" xlink:href="#70"/><use y="106.379" xlink:href="#71"/></svg><svg x="1800"><use xlink:href="#a"/><use xlink:href="#35"/><use y="2.171" xlink:href="#36"/><use y="4.342" xlink:href="#37"/><use y="6.513" xlink:href="#38"/><use y="8.684" xlink:href="#39"/><use y="10.855" xlink:href="#40"/><use y="13.026" xlink:href="#41"/><use y="15.197" xlink:href="#42"/><use y="17.368" xlink:href="#43"/><use y="19.539" xlink:href="#44"/><use y="21.71" xlink:href="#45"/><use y="23.881" xlink:href="#46"/><use y="26.052" xlink:href="#47"/><use y="28.223" xlink:href="#48"/><use y="30.394" xlink:href="#49"/><use y="32.565" xlink:href="#50"/><use y="34.736" xlink:href="#51"/><use y="36.907" xlink:href="#52"/><use y="39.078" xlink:href="#53"/><use y="41.249" xlink:href="#54"/><use y="43.42" xlink:href="#55"/><use y="45.591" xlink:href="#56"/><use y="47.762" xlink:href="#57"/><use y="49.933" xlink:href="#58"/><use y="52.104" xlink:href="#59"/><use y="54.275" xlink:href="#60"/><use y="56.446" xlink:href="#61"/><use y="58.617" xlink:href="#62"/><use y="60.788" xlink:href="#63"/><use y="62.959" xlink:href="#64"/><use y="65.13" xlink:href="#65"/><use y="67.301" xlink:href="#66"/><use y="69.472" xlink:href="#67"/><use y="71.643" xlink:href="#68"/><use y="73.814" xlink:href="#69"/><use y="75.985" xlink:href="#70"/><use y="78.156" xlink:href="#71"/><use y="80.327" xlink:href="#72"/><use y="82.498" xlink:href="#73"/><use y="84.669" xlink:href="#74"/><use y="86.84" xlink:href="#35"/><use y="89.011" xlink:href="#75"/><use y="91.182" xlink:href="#76"/><use y="93.353" xlink:href="#77"/><use y="95.524" xlink:href="#21"/><use y="97.695" xlink:href="#78"/><use y="99.866" xlink:href="#79"/><use y="102.037" xlink:href="#80"/><use y="104.208" xlink:href="#81"/><use y="106.379" xlink:href="#82"/></svg><svg x="1900"><use xlink:href="#a"/><use xlink:href="#36"/><use y="2.171" xlink:href="#37"/><use y="4.342" xlink:href="#38"/><use y="6.513" xlink:href="#39"/><use y="8.684" xlink:href="#40"/><use y="10.855" xlink:href="#41"/><use y="13.026" xlink:href="#42"/><use y="15.197" xlink:href="#43"/><use y="17.368" xlink:href="#44"/><use y="19.539" xlink:href="#45"/><use y="21.71" xlink:href="#46"/><use y="23.881" xlink:href="#47"/><use y="26.052" xlink:href="#48"/><use y="28.223" xlink:href="#49"/><use y="30.394" xlink:href="#50"/><use y="32.565" xlink:href="#51"/><use y="34.736" xlink:href="#52"/><use y="36.907" xlink:href="#53"/><use y="39.078" xlink:href="#54"/><use y="41.249" xlink:href="#55"/><use y="43.42" xlink:href="#56"/><use y="45.591" xlink:href="#57"/><use y="47.762" xlink:href="#58"/><use y="49.933" xlink:href="#59"/><use y="52.104" xlink:href="#60"/><use y="54.275" xlink:href="#61"/><use y="56.446" xlink:href="#62"/><use y="58.617" xlink:href="#63"/><use y="60.788" xlink:href="#64"/><use y="62.959" xlink:href="#65"/><use y="65.13" xlink:href="#66"/><use y="67.301" xlink:href="#67"/><use y="69.472" xlink:href="#68"/><use y="71.643" xlink:href="#69"/><use y="73.814" xlink:href="#70"/><use y="75.985" xlink:href="#71"/><use y="78.156" xlink:href="#72"/><use y="80.327" xlink:href="#73"/><use y="82.498" xlink:href="#74"/><use y="84.669" xlink:href="#35"/><use y="86.84" xlink:href="#75"/><use y="89.011" xlink:href="#76"/><use y="91.182" xlink:href="#77"/><use y="93.353" xlink:href="#21"/><use y="95.524" xlink:href="#78"/><use y="97.695" xlink:href="#79"/><use y="99.866" xlink:href="#80"/><use y="102.037" xlink:href="#81"/><use y="104.208" xlink:href="#82"/><use y="106.379" xlink:href="#83"/></svg><svg x="2000"><use xlink:href="#a"/><use xlink:href="#37"/><use y="2.171" xlink:href="#38"/><use y="4.342" xlink:href="#39"/><use y="6.513" xlink:href="#40"/><use y="8.684" xlink:href="#41"/><use y="10.855" xlink:href="#42"/><use y="13.026" xlink:href="#43"/><use y="15.197" xlink:href="#44"/><use y="17.368" xlink:href="#45"/><use y="19.539" xlink:href="#46"/><use y="21.71" xlink:href="#47"/><use y="23.881" xlink:href="#48"/><use y="26.052" xlink:href="#49"/><use y="28.223" xlink:href="#50"/><use y="30.394" xlink:href="#51"/><use y="32.565" xlink:href="#52"/><use y="34.736" xlink:href="#53"/><use y="36.907" xlink:href="#54"/><use y="39.078" xlink:href="#55"/><use y="41.249" xlink:href="#56"/><use y="43.42" xlink:href="#57"/><use y="45.591" xlink:href="#58"/><use y="47.762" xlink:href="#59"/><use y="49.933" xlink:href="#60"/><use y="52.104" xlink:href="#61"/><use y="54.275" xlink:href="#62"/><use y="56.446" xlink:href="#63"/><use y="58.617" xlink:href="#64"/><use y="60.788" xlink:href="#65"/><use y="62.959" xlink:href="#66"/><use y="65.13" xlink:href="#67"/><use y="67.301" xlink:href="#68"/><use y="69.472" xlink:href="#69"/><use y="71.643" xlink:href="#70"/><use y="73.814" xlink:href="#71"/><use y="75.985" xlink:href="#72"/><use y="78.156" xlink:href="#73"/><use y="80.327" xlink:href="#74"/><use y="82.498" xlink:href="#35"/><use y="84.669" xlink:href="#75"/><use y="86.84" xlink:href="#76"/><use y="89.011" xlink:href="#77"/><use y="91.182" xlink:href="#21"/><use y="93.353" xlink:href="#78"/><use y="95.524" xlink:href="#79"/><use y="97.695" xlink:href="#80"/><use y="99.866" xlink:href="#81"/><use y="102.037" xlink:href="#82"/><use y="104.208" xlink:href="#83"/><use y="106.379" xlink:href="#84"/></svg><svg x="2100"><use xlink:href="#a"/><use xlink:href="#38"/><use y="2.171" xlink:href="#39"/><use y="4.342" xlink:href="#40"/><use y="6.513" xlink:href="#41"/><use y="8.684" xlink:href="#42"/><use y="10.855" xlink:href="#43"/><use y="13.026" xlink:href="#44"/><use y="15.197" xlink:href="#45"/><use y="17.368" xlink:href="#46"/><use y="19.539" xlink:href="#47"/><use y="21.71" xlink:href="#48"/><use y="23.881" xlink:href="#49"/><use y="26.052" xlink:href="#50"/><use y="28.223" xlink:href="#51"/><use y="30.394" xlink:href="#52"/><use y="32.565" xlink:href="#53"/><use y="34.736" xlink:href="#54"/><use y="36.907" xlink:href="#55"/><use y="39.078" xlink:href="#56"/><use y="41.249" xlink:href="#57"/><use y="43.42" xlink:href="#58"/><use y="45.591" xlink:href="#59"/><use y="47.762" xlink:href="#60"/><use y="49.933" xlink:href="#61"/><use y="52.104" xlink:href="#62"/><use y="54.275" xlink:href="#63"/><use y="56.446" xlink:href="#64"/><use y="58.617" xlink:href="#65"/><use y="60.788" xlink:href="#66"/><use y="62.959" xlink:href="#67"/><use y="65.13" xlink:href="#68"/><use y="67.301" xlink:href="#69"/><use y="69.472" xlink:href="#70"/><use y="71.643" xlink:href="#71"/><use y="73.814" xlink:href="#72"/><use y="75.985" xlink:href="#73"/><use y="78.156" xlink:href="#74"/><use y="80.327" xlink:href="#35"/><use y="82.498" xlink:href="#75"/><use y="84.669" xlink:href="#76"/><use y="86.84" xlink:href="#77"/><use y="89.011" xlink:href="#21"/><use y="91.182" xlink:href="#78"/><use y="93.353" xlink:href="#79"/><use y="95.524" xlink:href="#80"/><use y="97.695" xlink:href="#81"/><use y="99.866" xlink:href="#82"/><use y="102.037" xlink:href="#83"/><use y="104.208" xlink:href="#84"/><use y="106.379" xlink:href="#85"/></svg><svg x="2200"><use xlink:href="#a"/><use xlink:href="#38"/><use y="2.171" xlink:href="#39"/><use y="4.342" xlink:href="#40"/><use y="6.513" xlink:href="#41"/><use y="8.684" xlink:href="#42"/><use y="10.855" xlink:href="#43"/><use y="13.026" xlink:href="#44"/><use y="15.197" xlink:href="#45"/><use y="17.368" xlink:href="#46"/><use y="19.539" xlink:href="#47"/><use y="21.71" xlink:href="#48"/><use y="23.881" xlink:href="#49"/><use y="26.052" xlink:href="#50"/><use y="28.223" xlink:href="#51"/><use y="30.394" xlink:href="#52"/><use y="32.565" xlink:href="#53"/><use y="34.736" xlink:href="#54"/><use y="36.907" xlink:href="#55"/><use y="39.078" xlink:href="#56"/><use y="41.249" xlink:href="#57"/><use y="43.42" xlink:href="#58"/><use y="45.591" xlink:href="#59"/><use y="47.762" xlink:href="#60"/><use y="49.933" xlink:href="#61"/><use y="52.104" xlink:href="#62"/><use y="54.275" xlink:href="#63"/><use y="56.446" xlink:href="#64"/><use y="58.617" xlink:href="#65"/><use y="60.788" xlink:href="#66"/><use y="62.959" xlink:href="#67"/><use y="65.13" xlink:href="#68"/><use y="67.301" xlink:href="#69"/><use y="69.472" xlink:href="#70"/><use y="71.643" xlink:href="#71"/><use y="73.814" xlink:href="#72"/><use y="75.985" xlink:href="#73"/><use y="78.156" xlink:href="#74"/><use y="80.327" xlink:href="#35"/><use y="82.498" xlink:href="#75"/><use y="84.669" xlink:href="#76"/><use y="86.84" xlink:href="#77"/><use y="89.011" xlink:href="#21"/><use y="91.182" xlink:href="#78"/><use y="93.353" xlink:href="#79"/><use y="95.524" xlink:href="#80"/><use y="97.695" xlink:href="#81"/><use y="99.866" xlink:href="#82"/><use y="102.037" xlink:href="#83"/><use y="104.208" xlink:href="#84"/><use y="106.379" xlink:href="#85"/></svg><svg x="2300"><use xlink:href="#a"/><use xlink:href="#38"/><use y="2.171" xlink:href="#39"/><use y="4.342" xlink:href="#40"/><use y="6.513" xlink:href="#41"/><use y="8.684" xlink:href="#42"/><use y="10.855" xlink:href="#43"/><use y="13.026" xlink:href="#44"/><use y="15.197" xlink:href="#45"/><use y="17.368" xlink:href="#46"/><use y="19.539" xlink:href="#47"/><use y="21.71" xlink:href="#48"/><use y="23.881" xlink:href="#49"/><use y="26.052" xlink:href="#50"/><use y="28.223" xlink:href="#51"/><use y="30.394" xlink:href="#52"/><use y="32.565" xlink:href="#53"/><use y="34.736" xlink:href="#54"/><use y="36.907" xlink:href="#55"/><use y="39.078" xlink:href="#56"/><use y="41.249" xlink:href="#57"/><use y="43.42" xlink:href="#58"/><use y="45.591" xlink:href="#59"/><use y="47.762" xlink:href="#60"/><use y="49.933" xlink:href="#61"/><use y="52.104" xlink:href="#62"/><use y="54.275" xlink:href="#63"/><use y="56.446" xlink:href="#64"/><use y="58.617" xlink:href="#65"/><use y="60.788" xlink:href="#66"/><use y="62.959" xlink:href="#67"/><use y="65.13" xlink:href="#68"/><use y="67.301" xlink:href="#69"/><use y="69.472" xlink:href="#70"/><use y="71.643" xlink:href="#71"/><use y="73.814" xlink:href="#72"/><use y="75.985" xlink:href="#73"/><use y="78.156" xlink:href="#74"/><use y="80.327" xlink:href="#35"/><use y="82.498" xlink:href="#75"/><use y="84.669" xlink:href="#76"/><use y="86.84" xlink:href="#77"/><use y="89.011" xlink:href="#21"/><use y="91.182" xlink:href="#78"/><use y="93.353" xlink:href="#79"/><use y="95.524" xlink:href="#80"/><use y="97.695" xlink:href="#81"/><use y="99.866" xlink:href="#82"/><use y="102.037" xlink:href="#83"/><use y="104.208" xlink:href="#84"/><use y="106.379" xlink:href="#85"/><use y="108.55" xlink:href="#1"/></svg><svg x="2400"><use xlink:href="#a"/><use xlink:href="#39"/><use y="2.171" xlink:href="#40"/><use y="4.342" xlink:href="#41"/><use y="6.513" xlink:href="#42"/><use y="8.684" xlink:href="#43"/><use y="10.855" xlink:href="#44"/><use y="13.026" xlink:href="#45"/><use y="15.197" xlink:href="#46"/><use y="17.368" xlink:href="#47"/><use y="19.539" xlink:href="#48"/><use y="21.71" xlink:href="#49"/><use y="23.881" xlink:href="#50"/><use y="26.052" xlink:href="#51"/><use y="28.223" xlink:href="#52"/><use y="30.394" xlink:href="#53"/><use y="32.565" xlink:href="#54"/><use y="34.736" xlink:href="#55"/><use y="36.907" xlink:href="#56"/><use y="39.078" xlink:href="#57"/><use y="41.249" xlink:href="#58"/><use y="43.42" xlink:href="#59"/><use y="45.591" xlink:href="#60"/><use y="47.762" xlink:href="#61"/><use y="49.933" xlink:href="#62"/><use y="52.104" xlink:href="#63"/><use y="54.275" xlink:href="#64"/><use y="56.446" xlink:href="#65"/><use y="58.617" xlink:href="#66"/><use y="60.788" xlink:href="#67"/><use y="62.959" xlink:href="#68"/><use y="65.13" xlink:href="#69"/><use y="67.301" xlink:href="#70"/><use y="69.472" xlink:href="#71"/><use y="71.643" xlink:href="#72"/><use y="73.814" xlink:href="#73"/><use y="75.985" xlink:href="#74"/><use y="78.156" xlink:href="#35"/><use y="80.327" xlink:href="#75"/><use y="82.498" xlink:href="#76"/><use y="84.669" xlink:href="#77"/><use y="86.84" xlink:href="#21"/><use y="89.011" xlink:href="#78"/><use y="91.182" xlink:href="#79"/><use y="93.353" xlink:href="#80"/><use y="95.524" xlink:href="#81"/><use y="97.695" xlink:href="#82"/><use y="99.866" xlink:href="#83"/><use y="102.037" xlink:href="#84"/><use y="104.208" xlink:href="#85"/><use y="106.379" xlink:href="#1"/></svg></svg></g></g></svg></svg>